<svg width="20" height="20" viewBox="0 0 20 20" fill="none" xmlns="http://www.w3.org/2000/svg">
<path d="M20 15.0001C20 15.5894 19.7659 16.1547 19.3491 16.5714C18.9324 16.9881 18.3671 17.2223 17.7778 17.2223H2.22222C1.63285 17.2223 1.06762 16.9881 0.650874 16.5714C0.234126 16.1547 0 15.5894 0 15.0001V5.00005C0 4.41068 0.234126 3.84545 0.650874 3.42871C1.06762 3.01196 1.63285 2.77783 2.22222 2.77783H17.7778C18.3671 2.77783 18.9324 3.01196 19.3491 3.42871C19.7659 3.84545 20 4.41068 20 5.00005V15.0001Z" fill="#75AADB"/>
<path d="M0 7.22217H20V12.7777H0V7.22217Z" fill="#EEEEEE"/>
<path d="M10 7.22217L10.2711 8.63772L11.0633 7.43383L10.7717 8.84495L11.9639 8.0355L11.1545 9.22828L12.5661 8.93717L11.3622 9.72883L12.7778 9.99995L11.3622 10.2711L12.5661 11.0633L11.1545 10.7716L11.9639 11.9638L10.7717 11.1544L11.0633 12.5661L10.2711 11.3622L10 12.7777L9.72889 11.3622L8.93723 12.5661L9.22834 11.1544L8.03556 11.9638L8.84501 10.7716L7.4339 11.0633L8.63778 10.2711L7.22223 9.99995L8.63778 9.72883L7.4339 8.93717L8.84501 9.22828L8.03556 8.0355L9.22834 8.84495L8.93723 7.43383L9.72889 8.63772L10 7.22217Z" fill="#FCBF49"/>
<path d="M10 7.96106L10.1345 8.66383L10.1989 8.99995L10.3872 8.71439L10.7806 8.11661L10.6356 8.81717L10.5661 9.15272L10.8495 8.9605L11.4417 8.55883L11.04 9.15106L10.8478 9.43439L11.1828 9.36495L11.8839 9.2205L11.2861 9.61383L11 9.80106L11.3361 9.8655L12.0389 9.99995L11.3361 10.1344L11 10.1988L11.2856 10.3872L11.8833 10.7805L11.1822 10.6355L10.8467 10.5661L11.0389 10.8494L11.4406 11.4411L10.8489 11.0394L10.5656 10.8472L10.635 11.1827L10.78 11.8838L10.3867 11.2861L10.1989 10.9999L10.1345 11.3361L10 12.0388L9.86556 11.3361L9.80112 10.9999L9.61278 11.2861L9.21945 11.8838L9.3639 11.1827L9.43334 10.8477L9.15001 11.0399L8.55778 11.4416L8.95945 10.8494L9.15167 10.5661L8.81612 10.6355L8.11556 10.7805L8.71334 10.3872L8.9989 10.1988L8.66278 10.1344L7.96112 9.99995L8.6639 9.8655L9.00001 9.80106L8.7139 9.61272L8.11612 9.21939L8.81667 9.36383L9.15167 9.43328L8.95945 9.14995L8.55723 8.55772L9.14945 8.95995L9.43278 9.15217L9.36334 8.81717L9.2189 8.11661L9.61223 8.71439L9.80056 9.0005L9.86501 8.66439L10 7.96106ZM10 7.22217L9.72889 8.63772L8.93723 7.43383L9.22834 8.8455L8.03556 8.03606L8.84501 9.22883L7.4339 8.93772L8.63778 9.72939L7.22223 9.99995L8.63778 10.2711L7.4339 11.0633L8.84501 10.7716L8.03556 11.9638L9.22834 11.1544L8.93723 12.5661L9.72889 11.3622L10 12.7777L10.2711 11.3622L11.0633 12.5661L10.7717 11.1544L11.9639 11.9638L11.1545 10.7716L12.5661 11.0633L11.3622 10.2711L12.7778 9.99995L11.3622 9.72883L12.5661 8.93717L11.1545 9.22828L11.9639 8.0355L10.7717 8.84495L11.0633 7.43328L10.2711 8.63717L10 7.22217Z" fill="#843511"/>
<path d="M10 11.1111C10.6136 11.1111 11.1111 10.6137 11.1111 10C11.1111 9.38638 10.6136 8.88892 10 8.88892C9.38635 8.88892 8.88889 9.38638 8.88889 10C8.88889 10.6137 9.38635 11.1111 10 11.1111Z" fill="#FCBF49"/>
<path d="M10 11.1806C9.3489 11.1806 8.81946 10.6511 8.81946 10C8.81946 9.3489 9.3489 8.81946 10 8.81946C10.6511 8.81946 11.1806 9.3489 11.1806 10C11.1806 10.6511 10.6511 11.1806 10 11.1806ZM10 8.95835C9.42557 8.95835 8.95835 9.42557 8.95835 10C8.95835 10.5745 9.42557 11.0417 10 11.0417C10.5745 11.0417 11.0417 10.5745 11.0417 10C11.0417 9.42557 10.5745 8.95835 10 8.95835Z" fill="#843511"/>
<path d="M9.88945 9.87441C9.88945 9.96052 9.74445 10.03 9.56556 10.03C9.38612 10.03 9.24112 9.96052 9.24112 9.87441C9.24112 9.7883 9.38612 9.71885 9.56556 9.71885C9.74445 9.71885 9.88945 9.7883 9.88945 9.87441ZM10.7522 9.86107C10.7522 9.77163 10.6045 9.69885 10.4222 9.69885C10.24 9.69885 10.0922 9.77107 10.0922 9.86107C10.0922 9.95107 10.24 10.0233 10.4222 10.0233C10.605 10.0233 10.7522 9.95052 10.7522 9.86107Z" fill="#C16540"/>
<path d="M9.70166 10.4855C9.70166 10.4155 9.83833 10.3583 10.0061 10.3583C10.1744 10.3583 10.3105 10.4149 10.3105 10.4855C10.3105 10.5555 10.1739 10.6127 10.0061 10.6127C9.83777 10.6127 9.70166 10.5555 9.70166 10.4855Z" fill="#ED8662"/>
</svg>
