<svg width="46" height="47" viewBox="0 0 46 47" fill="none" xmlns="http://www.w3.org/2000/svg">
<path d="M34.618 8.68529C34.1854 8.424 24.0203 2.56685 23.6746 20.7145C23.6288 21.761 23.4612 22.4531 23.1833 22.743L23.1104 22.8337C22.8549 23.2069 22.4931 23.1737 22.0499 22.7366C14.5873 14.3071 11.8579 36.2126 11.7456 37.1522C11.722 37.278 11.7178 37.4628 11.7333 37.6945C11.7487 37.9263 11.7835 38.1998 11.8352 38.4971C11.887 38.7945 11.9546 39.109 12.0337 39.4203C12.1128 39.7315 12.2015 40.0324 12.2941 40.3033C12.3898 40.5764 12.4867 40.8121 12.5788 40.9962C12.671 41.1804 12.7565 41.3091 12.8303 41.3747C12.9888 41.5233 13.0968 41.432 13.1352 41.1169C13.1621 40.9009 15.8501 19.3338 22.7638 27.1425C23.4148 27.8115 23.9467 27.8827 24.3215 27.351L24.3935 27.2614C24.794 26.8217 25.0303 25.7855 25.0852 24.2271C25.4058 7.42348 35.4116 13.1746 35.5126 13.2401C35.6588 13.3277 35.7496 13.1716 35.7686 12.7998C35.7792 12.6292 35.7702 12.4051 35.7423 12.141C35.7144 11.8769 35.6682 11.5783 35.6063 11.2631C35.5435 10.9544 35.4668 10.6383 35.3811 10.3352C35.2955 10.0321 35.2029 9.74886 35.1093 9.50381C35.0157 9.25877 34.9232 9.05742 34.8378 8.91283C34.7524 8.76825 34.6761 8.68366 34.6137 8.66457L34.618 8.68529Z" fill="#F5AAA4"/>
<path d="M38.2765 13.6776C38.3644 13.6182 38.4138 13.415 38.4198 13.0886C38.4258 12.7621 38.3882 12.3239 38.3107 11.8181C38.1046 10.6576 37.677 9.63355 37.3542 9.53112C36.8925 9.3755 26.0504 6.09098 24.7531 23.7712C24.645 24.8094 24.4277 25.5123 24.1106 25.8489L24.0264 25.9536C23.7327 26.3773 23.3416 26.4316 22.8705 26.1144C15.119 19.6962 11.0192 41.5859 10.8473 42.5215C10.727 43.1754 10.9255 44.4844 11.2878 45.4506C11.4874 45.9577 11.6761 46.2773 11.8145 46.3425C11.9808 46.4433 12.1001 46.3339 12.1597 46.0258C12.1987 45.8035 16.2384 24.2667 23.4196 30.2124C24.1133 30.7087 24.6892 30.6539 25.1212 30.0506L25.2053 29.9459C25.6639 29.4416 25.9739 28.3937 26.1211 26.85C27.3222 10.4719 37.9952 13.6974 38.104 13.7359C38.1711 13.7567 38.2291 13.7371 38.2765 13.6776Z" fill="#44C5C6"/>
</svg>
