<svg width="76" height="76" viewBox="0 0 76 76" fill="none" xmlns="http://www.w3.org/2000/svg">
<circle cx="38" cy="38" r="37" fill="#B6E8E9" stroke="#171A1A" stroke-width="2"/>
<path d="M38 13C38.3123 12.9998 38.617 13.0992 38.8713 13.2843C39.1257 13.4694 39.3172 13.7309 39.419 14.0325L41.138 19.1277H56C56.7956 19.1277 57.5587 19.4505 58.1213 20.025C58.6839 20.5996 59 21.3789 59 22.1915V43.6383C59 44.4509 58.6839 45.2302 58.1213 45.8048C57.5587 46.3793 56.7956 46.7021 56 46.7021H50.45L54.419 58.458C54.5487 58.8424 54.5236 59.2636 54.3492 59.6291C54.1748 59.9945 53.8653 60.2742 53.489 60.4066C53.1127 60.5391 52.7002 60.5134 52.3424 60.3353C51.9846 60.1572 51.7107 59.8412 51.581 59.4569L47.276 46.7021H39.5V55.8936C39.5 56.2999 39.342 56.6896 39.0607 56.9769C38.7794 57.2641 38.3978 57.4255 38 57.4255C37.6022 57.4255 37.2206 57.2641 36.9393 56.9769C36.658 56.6896 36.5 56.2999 36.5 55.8936V46.7021H28.724L24.419 59.4569C24.2893 59.8412 24.0154 60.1572 23.6576 60.3353C23.2998 60.5134 22.8873 60.5391 22.511 60.4066C22.1347 60.2742 21.8252 59.9945 21.6508 59.6291C21.4764 59.2636 21.4513 58.8424 21.581 58.458L25.55 46.7021H20C19.2044 46.7021 18.4413 46.3793 17.8787 45.8048C17.3161 45.2302 17 44.4509 17 43.6383V22.1915C17 21.3789 17.3161 20.5996 17.8787 20.025C18.4413 19.4505 19.2044 19.1277 20 19.1277H34.862L36.581 14.0325C36.6828 13.7309 36.8743 13.4694 37.1287 13.2843C37.383 13.0992 37.6877 12.9998 38 13ZM20 22.1915V43.6383H56V22.1915H20Z" fill="#171A1A"/>
</svg>
