<svg width="49" height="47" viewBox="0 0 49 47" fill="none" xmlns="http://www.w3.org/2000/svg">
<g clip-path="url(#clip0_1175_6573)">
<path fill-rule="evenodd" clip-rule="evenodd" d="M47.4037 5.84183C48.1129 6.92116 49.354 15.3399 45.6308 17.7144C49.5313 20.0889 48.4675 19.2255 47.0491 20.5207C46.34 22.0317 46.34 25.2697 46.34 26.349C47.7583 27.4284 49.354 27.4284 46.5173 28.7236C48.2902 30.6663 47.581 37.7899 46.34 39.7327C45.4535 41.0279 30.0289 47.288 25.7739 46.6404C22.4053 45.9928 1.13006 40.3803 0.952762 39.301L2.37111 37.574C3.61217 28.9394 -2.77041 32.6091 3.25758 28.9394C1.13006 27.6442 0.420881 18.5779 2.7257 17.0668C0.0662933 15.9875 1.83923 15.7716 3.08029 14.9082C3.78946 7.56875 0.420881 8.64808 1.48464 7.56875C2.19382 6.70529 17.0865 -0.418264 18.8594 0.0134672C24.001 1.09279 44.7443 2.81972 47.4037 5.84183ZM44.567 30.0188C44.567 30.0188 45.0989 29.587 45.6308 30.2346C46.34 31.7457 46.34 37.3582 45.0989 38.4375C43.5033 39.9486 30.9154 44.9135 26.3058 44.9135C27.3695 42.9707 26.8377 39.301 26.6604 38.4375C30.9154 36.2788 39.9574 32.825 44.567 30.0188ZM25.5966 44.9135C23.4691 44.4817 3.61217 39.0851 3.61217 38.4375C3.78946 36.2788 3.78946 33.9043 2.90299 32.1774C10.172 34.1202 18.8594 37.1423 26.1285 38.4375C26.3058 39.301 26.8377 43.1865 25.5966 44.9135ZM4.49864 18.7938C1.66194 17.2827 2.54841 26.1332 3.61217 26.9966C5.38511 28.7236 17.973 33.6885 22.5826 33.6885C21.6961 31.5298 22.0507 28.076 22.228 26.9966C17.7957 24.838 8.93098 21.3841 4.49864 18.7938ZM23.2918 33.4726C25.242 33.0409 45.0989 27.6442 45.0989 27.2125C45.0989 25.0538 44.9216 22.6793 46.1627 20.9524C38.7163 22.8952 30.0289 25.9173 22.7599 27.2125C22.5826 28.076 22.0507 31.7457 23.2918 33.4726ZM44.9216 7.13702C45.0989 7.13702 45.8081 6.70529 46.34 7.35289C47.0491 8.64808 46.8719 14.4764 45.8081 15.3399C44.0352 16.851 31.4473 21.8159 26.8377 21.8159C27.9014 19.8731 27.5468 16.4192 27.3695 15.3399C31.6246 13.1813 40.4893 9.72741 44.9216 7.13702ZM26.3058 21.8159C24.1782 21.3841 4.32134 15.9875 4.32134 15.3399C4.49864 13.3971 4.49864 11.0226 3.43488 9.29568C10.8812 11.2385 19.5686 14.0447 26.6604 15.3399C26.8377 16.4192 27.3695 20.0889 26.3058 21.8159Z" fill="#44C5C6"/>
<path d="M44.9216 7.13702C45.0989 7.13702 45.8081 6.70529 46.34 7.35289C47.0491 8.64808 46.8719 14.4764 45.8081 15.3399C44.0352 16.851 31.4473 21.8159 26.8377 21.8159C27.9014 19.8731 27.5468 16.4192 27.3695 15.3399C31.6246 13.1813 40.4893 9.72741 44.9216 7.13702Z" fill="#F5AAA4"/>
<path d="M26.3058 21.8159C24.1782 21.3841 4.32134 15.9875 4.32134 15.3399C4.49864 13.3971 4.49864 11.0226 3.43488 9.29568C10.8812 11.2385 19.5686 14.0447 26.6604 15.3399C26.8377 16.4192 27.3695 20.0889 26.3058 21.8159Z" fill="#F5AAA4"/>
<path d="M23.2918 33.4726C25.242 33.0409 45.0989 27.6442 45.0989 27.2125C45.0989 25.0538 44.9216 22.6793 46.1627 20.9524C38.7163 22.8952 30.0289 25.9173 22.7599 27.2125C22.5826 28.076 22.0507 31.7457 23.2918 33.4726Z" fill="#F5AAA4"/>
<path d="M4.49864 18.7938C1.66194 17.2827 2.54841 26.1332 3.61217 26.9966C5.38511 28.7236 17.973 33.6885 22.5826 33.6885C21.6961 31.5298 22.0507 28.076 22.228 26.9966C17.7957 24.838 8.93098 21.3841 4.49864 18.7938Z" fill="#F5AAA4"/>
<path d="M44.567 30.0188C44.567 30.0188 45.0989 29.587 45.6308 30.2346C46.34 31.7457 46.34 37.3582 45.0989 38.4375C43.5033 39.9486 30.9154 44.9135 26.3058 44.9135C27.3695 42.9707 26.8377 39.301 26.6604 38.4375C30.9154 36.2788 39.9574 32.825 44.567 30.0188Z" fill="#F5AAA4"/>
<path d="M25.5966 44.9135C23.4691 44.4817 3.61217 39.0851 3.61217 38.4375C3.78946 36.2788 3.78946 33.9043 2.90299 32.1774C10.172 34.1202 18.8594 37.1423 26.1285 38.4375C26.3058 39.301 26.8377 43.1865 25.5966 44.9135Z" fill="#F5AAA4"/>
</g>
<defs>
<clipPath id="clip0_1175_6573">
<rect width="47.7124" height="47.0062" fill="white" transform="translate(0.621338 -0.00500488)"/>
</clipPath>
</defs>
</svg>
