<svg width="55" height="66" viewBox="0 0 55 66" fill="none" xmlns="http://www.w3.org/2000/svg">
<g clip-path="url(#clip0_1175_6571)">
<path d="M31.9764 3.12518L31.4031 2.07817L27.3901 5.33574C27.3901 5.33574 19.8062 18.991 21.6217 22.3066L23.9507 20.416L31.9764 3.12518Z" fill="#F2958D"/>
<path d="M21.5858 22.3357C19.7703 19.0201 6.50097 22.2926 6.50097 22.2926L2.48797 25.5501L3.06129 26.5971L19.2927 24.1971L21.5858 22.3357Z" fill="#F2958D"/>
<path fill-rule="evenodd" clip-rule="evenodd" d="M24.7151 21.2449L33.9829 1.49641C34.0785 1.29281 34.3293 1.27825 34.4487 1.49638L49.594 29.155C49.6417 29.2422 49.6537 29.3586 49.6059 29.4604L40.2903 49.3107L40.338 49.3979L34.9635 53.7608L34.9396 53.7171L16.2478 56.5389C16.1522 56.5535 16.0686 56.4953 16.0209 56.4081L0.851759 28.7058C0.756206 28.5313 0.827858 28.2841 1.01896 28.255L19.5555 25.4332L24.7151 21.2449ZM20.081 26.393L34.5574 52.8301L39.717 48.6418L25.2406 22.2047L20.081 26.393Z" fill="#44C5C6"/>
<path d="M25.0734 23.6007L21.2754 26.6838L34.7962 51.3759L38.5942 48.2928L25.0734 23.6007Z" fill="#93DDDE"/>
<path fill-rule="evenodd" clip-rule="evenodd" d="M39.717 48.6418L34.5574 52.8301L20.081 26.393L25.2406 22.2047L39.717 48.6418ZM21.2754 26.6838L25.0734 23.6007L38.5942 48.2928L34.7962 51.3759L21.2754 26.6838Z" fill="#13A6A7"/>
</g>
<defs>
<clipPath id="clip0_1175_6571">
<rect width="43.3806" height="43.4355" fill="white" transform="matrix(0.776398 -0.630243 0.480286 0.877112 0 27.3402)"/>
</clipPath>
</defs>
</svg>
