<svg width="76" height="76" viewBox="0 0 76 76" fill="none" xmlns="http://www.w3.org/2000/svg">
<circle cx="38" cy="38" r="37" fill="#B6E8E9" stroke="#171A1A" stroke-width="2"/>
<path d="M56 16.0638C56.7956 16.0638 57.5587 16.3866 58.1213 16.9612C58.6839 17.5358 59 18.3151 59 19.1277V43.6383C59 44.4509 58.6839 45.2302 58.1213 45.8048C57.5587 46.3793 56.7956 46.7021 56 46.7021H48.5C47.5685 46.7021 46.6499 46.9236 45.8167 47.349C44.9836 47.7745 44.2589 48.3922 43.7 49.1532L38 56.9139L32.3 49.1532C31.7411 48.3922 31.0164 47.7745 30.1833 47.349C29.3501 46.9236 28.4315 46.7021 27.5 46.7021H20C19.2044 46.7021 18.4413 46.3793 17.8787 45.8048C17.3161 45.2302 17 44.4509 17 43.6383V19.1277C17 18.3151 17.3161 17.5358 17.8787 16.9612C18.4413 16.3866 19.2044 16.0638 20 16.0638H56ZM20 13C18.4087 13 16.8826 13.6456 15.7574 14.7948C14.6321 15.9439 14 17.5025 14 19.1277L14 43.6383C14 45.2635 14.6321 46.822 15.7574 47.9712C16.8826 49.1204 18.4087 49.766 20 49.766H27.5C27.9657 49.766 28.4251 49.8767 28.8416 50.0894C29.2582 50.3021 29.6206 50.611 29.9 50.9915L35.6 58.7522C35.8794 59.1327 36.2418 59.4415 36.6584 59.6542C37.0749 59.867 37.5343 59.9777 38 59.9777C38.4657 59.9777 38.9251 59.867 39.3416 59.6542C39.7582 59.4415 40.1206 59.1327 40.4 58.7522L46.1 50.9915C46.3794 50.611 46.7418 50.3021 47.1584 50.0894C47.5749 49.8767 48.0343 49.766 48.5 49.766H56C57.5913 49.766 59.1174 49.1204 60.2426 47.9712C61.3679 46.822 62 45.2635 62 43.6383V19.1277C62 17.5025 61.3679 15.9439 60.2426 14.7948C59.1174 13.6456 57.5913 13 56 13H20Z" fill="#171A1A"/>
<path d="M23 23.7234C23 23.3172 23.158 22.9275 23.4393 22.6402C23.7206 22.3529 24.1022 22.1915 24.5 22.1915H51.5C51.8978 22.1915 52.2794 22.3529 52.5607 22.6402C52.842 22.9275 53 23.3172 53 23.7234C53 24.1297 52.842 24.5194 52.5607 24.8067C52.2794 25.094 51.8978 25.2554 51.5 25.2554H24.5C24.1022 25.2554 23.7206 25.094 23.4393 24.8067C23.158 24.5194 23 24.1297 23 23.7234ZM23 31.383C23 30.9767 23.158 30.5871 23.4393 30.2998C23.7206 30.0125 24.1022 29.8511 24.5 29.8511H51.5C51.8978 29.8511 52.2794 30.0125 52.5607 30.2998C52.842 30.5871 53 30.9767 53 31.383C53 31.7893 52.842 32.179 52.5607 32.4662C52.2794 32.7535 51.8978 32.9149 51.5 32.9149H24.5C24.1022 32.9149 23.7206 32.7535 23.4393 32.4662C23.158 32.179 23 31.7893 23 31.383ZM23 39.0426C23 38.6363 23.158 38.2467 23.4393 37.9594C23.7206 37.6721 24.1022 37.5107 24.5 37.5107H39.5C39.8978 37.5107 40.2794 37.6721 40.5607 37.9594C40.842 38.2467 41 38.6363 41 39.0426C41 39.4489 40.842 39.8385 40.5607 40.1258C40.2794 40.4131 39.8978 40.5745 39.5 40.5745H24.5C24.1022 40.5745 23.7206 40.4131 23.4393 40.1258C23.158 39.8385 23 39.4489 23 39.0426Z" fill="#171A1A"/>
</svg>
