<svg width="32" height="32" viewBox="0 0 32 32" fill="none" xmlns="http://www.w3.org/2000/svg">
<circle cx="16" cy="16" r="15.7143" fill="#B6E8E9" stroke="#373F3F" stroke-width="0.571429"/>
<path d="M25.1429 16.0561C25.1429 10.9749 21.0491 6.85608 16 6.85608C10.9486 6.85722 6.85486 10.9749 6.85486 16.0572C6.85486 20.6481 10.1989 24.4538 14.5691 25.1441V18.7155H12.2491V16.0572H14.5714V14.0287C14.5714 11.7235 15.9371 10.4504 18.0251 10.4504C19.0263 10.4504 20.072 10.6298 20.072 10.6298V12.8927H18.9189C17.784 12.8927 17.4297 13.6024 17.4297 14.3304V16.0561H19.9646L19.56 18.7144H17.4286V25.1429C21.7989 24.4526 25.1429 20.6469 25.1429 16.0561Z" fill="#373F3F"/>
</svg>
