<svg width="32" height="32" viewBox="0 0 32 32" fill="none" xmlns="http://www.w3.org/2000/svg">
<circle cx="16" cy="16" r="15.7143" fill="#B6E8E9" stroke="#373F3F" stroke-width="0.571429"/>
<path d="M16 6.85742C13.5189 6.85742 13.2069 6.86885 12.232 6.91228C11.2572 6.95799 10.5932 7.11114 10.0115 7.33742C9.40128 7.56693 8.8486 7.92694 8.39203 8.39228C7.92698 8.84907 7.56701 9.4017 7.33718 10.0117C7.11089 10.5923 6.95661 11.2574 6.91203 12.2288C6.86861 13.206 6.85718 13.5169 6.85718 16.0014C6.85718 18.4837 6.86861 18.7946 6.91203 19.7694C6.95775 20.7431 7.11089 21.4071 7.33718 21.9888C7.57146 22.59 7.88346 23.0997 8.39203 23.6083C8.89946 24.1168 9.40918 24.43 10.0103 24.6631C10.5932 24.8894 11.256 25.0437 12.2297 25.0883C13.2057 25.1317 13.5166 25.1431 16 25.1431C18.4835 25.1431 18.7932 25.1317 19.7692 25.0883C20.7417 25.0426 21.408 24.8894 21.9897 24.6631C22.5995 24.4335 23.1518 24.0735 23.608 23.6083C24.1166 23.0997 24.4286 22.59 24.6629 21.9888C24.888 21.4071 25.0423 20.7431 25.088 19.7694C25.1315 18.7946 25.1429 18.4837 25.1429 16.0003C25.1429 13.5168 25.1315 13.206 25.088 12.23C25.0423 11.2574 24.888 10.5923 24.6629 10.0117C24.4331 9.40168 24.0731 8.84905 23.608 8.39228C23.1516 7.92677 22.5989 7.56673 21.9886 7.33742C21.4057 7.11114 20.7406 6.95685 19.768 6.91228C18.792 6.86885 18.4823 6.85742 15.9977 6.85742H16.0012H16ZM15.1806 8.50542H16.0012C18.4423 8.50542 18.7315 8.51342 19.6949 8.55799C20.5863 8.59799 21.0709 8.74771 21.3932 8.87228C21.8195 9.03799 22.1246 9.23685 22.4446 9.55685C22.7646 9.87685 22.9623 10.1809 23.128 10.6083C23.2537 10.9294 23.4023 11.414 23.4423 12.3054C23.4869 13.2689 23.496 13.558 23.496 15.998C23.496 18.438 23.4869 18.7283 23.4423 19.6917C23.4023 20.5831 23.2526 21.0666 23.128 21.3889C22.9815 21.7858 22.7475 22.1448 22.4435 22.4391C22.1235 22.7591 21.8195 22.9569 21.392 23.1226C21.072 23.2483 20.5875 23.3969 19.6949 23.438C18.7315 23.4814 18.4423 23.4917 16.0012 23.4917C13.56 23.4917 13.2697 23.4814 12.3063 23.438C11.4149 23.3969 10.9315 23.2483 10.6092 23.1226C10.212 22.9762 9.85275 22.7427 9.55775 22.4391C9.25346 22.1443 9.01915 21.785 8.87203 21.3877C8.74746 21.0666 8.59775 20.582 8.55775 19.6906C8.51432 18.7271 8.50518 18.438 8.50518 15.9957C8.50518 13.5546 8.51432 13.2666 8.55775 12.3031C8.59889 11.4117 8.74746 10.9271 8.87318 10.6049C9.03889 10.1786 9.23775 9.87342 9.55775 9.55342C9.87775 9.23342 10.1817 9.03571 10.6092 8.86999C10.9315 8.74428 11.4149 8.59571 12.3063 8.55456C13.1497 8.51571 13.4766 8.50428 15.1806 8.50314V8.50542ZM20.8812 10.0231C20.7371 10.0231 20.5944 10.0515 20.4613 10.1067C20.3282 10.1618 20.2073 10.2426 20.1054 10.3445C20.0035 10.4464 19.9227 10.5673 19.8675 10.7004C19.8124 10.8335 19.784 10.9762 19.784 11.1203C19.784 11.2644 19.8124 11.407 19.8675 11.5401C19.9227 11.6732 20.0035 11.7942 20.1054 11.8961C20.2073 11.998 20.3282 12.0788 20.4613 12.1339C20.5944 12.189 20.7371 12.2174 20.8812 12.2174C21.1722 12.2174 21.4512 12.1018 21.657 11.8961C21.8627 11.6903 21.9783 11.4113 21.9783 11.1203C21.9783 10.8293 21.8627 10.5502 21.657 10.3445C21.4512 10.1387 21.1722 10.0231 20.8812 10.0231ZM16.0012 11.3054C15.3784 11.2957 14.7599 11.41 14.1817 11.6416C13.6035 11.8732 13.0772 12.2175 12.6333 12.6545C12.1895 13.0915 11.837 13.6124 11.5964 14.1869C11.3558 14.7614 11.2319 15.378 11.2319 16.0008C11.2319 16.6237 11.3558 17.2403 11.5964 17.8148C11.837 18.3893 12.1895 18.9102 12.6333 19.3472C13.0772 19.7842 13.6035 20.1285 14.1817 20.3601C14.7599 20.5917 15.3784 20.706 16.0012 20.6963C17.2338 20.677 18.4094 20.1739 19.2743 19.2954C20.1392 18.4169 20.6239 17.2336 20.6239 16.0008C20.6239 14.7681 20.1392 13.5848 19.2743 12.7063C18.4094 11.8278 17.2338 11.3247 16.0012 11.3054ZM16.0012 12.9523C16.8096 12.9523 17.5848 13.2734 18.1564 13.845C18.7281 14.4166 19.0492 15.1919 19.0492 16.0003C19.0492 16.8087 18.7281 17.5839 18.1564 18.1555C17.5848 18.7272 16.8096 19.0483 16.0012 19.0483C15.1928 19.0483 14.4175 18.7272 13.8459 18.1555C13.2743 17.5839 12.9532 16.8087 12.9532 16.0003C12.9532 15.1919 13.2743 14.4166 13.8459 13.845C14.4175 13.2734 15.1928 12.9523 16.0012 12.9523Z" fill="#373F3F"/>
</svg>
