<svg width="484" height="355" viewBox="0 0 484 355" fill="none" xmlns="http://www.w3.org/2000/svg">
<path d="M414.997 41.6306C413.552 41.6299 412.108 41.5533 410.671 41.401C401.078 40.3377 395.954 37.9453 394.758 37.3291C393.465 37.8245 387.907 39.5403 379.135 37.2566C369.952 34.8401 364.72 24.4488 363.79 22.4552L312.462 15.5196C312.309 15.5014 312.17 15.4243 312.073 15.3048C311.976 15.1852 311.929 15.0326 311.943 14.8793C311.952 14.7286 312.018 14.5872 312.128 14.4839C312.238 14.3806 312.384 14.3232 312.535 14.3235L354.341 14.3235C355.344 13.0306 360.117 7.23084 366.557 5.14052C372.997 3.05019 380.609 7.44834 382.567 8.65662C384.524 6.44546 394.311 -3.58327 407.119 1.34652C419.927 6.2763 421.812 18.5403 422.114 21.3194C425.159 21.4765 440.238 23.0231 465.721 38.1628C465.855 38.246 465.952 38.3788 465.99 38.5326C466.028 38.6864 466.004 38.849 465.923 38.9852C465.842 39.1215 465.711 39.2205 465.558 39.2611C465.405 39.3016 465.242 39.2804 465.104 39.202C437.386 22.721 421.715 22.5035 421.606 22.5035C421.45 22.5036 421.3 22.4433 421.187 22.3352C421.075 22.2271 421.008 22.0795 421.002 21.9235C421.002 21.7906 420.205 7.66583 406.732 2.4823C393.26 -2.70122 383.304 9.73199 383.207 9.82865C383.11 9.94759 382.972 10.0259 382.82 10.0483C382.668 10.0706 382.513 10.0354 382.385 9.94947C382.301 9.88906 373.625 4.13764 366.98 6.32463C360.334 8.51161 355.223 15.2538 355.175 15.3142C355.121 15.3922 355.048 15.456 354.964 15.5001C354.88 15.5443 354.787 15.5676 354.692 15.568L321.512 15.568L364.249 21.3073C364.353 21.32 364.451 21.3588 364.536 21.4201C364.621 21.4814 364.688 21.5631 364.732 21.6577C364.732 21.7785 370.037 33.6439 379.401 36.0846C388.765 38.5253 394.468 36.145 394.517 36.0846C394.6 36.0402 394.694 36.0169 394.788 36.0169C394.883 36.0169 394.977 36.0402 395.06 36.0846C395.06 36.0846 400.232 38.9724 410.768 40.1323C426.85 41.9085 436.649 32.9672 436.746 32.8827C436.801 32.8264 436.867 32.7817 436.94 32.7512C437.012 32.7207 437.09 32.7049 437.169 32.7049C437.248 32.7049 437.326 32.7207 437.398 32.7512C437.471 32.7817 437.537 32.8264 437.592 32.8827C437.648 32.9388 437.693 33.0056 437.724 33.0792C437.755 33.1529 437.77 33.2318 437.77 33.3116C437.77 33.3913 437.755 33.4703 437.724 33.5439C437.693 33.6175 437.648 33.6844 437.592 33.7405C431.21 38.9236 423.218 41.7144 414.997 41.6306Z" fill="#263238"/>
<path d="M6.598 30.164C6.46572 30.1632 6.33733 30.1191 6.23256 30.0383C6.12779 29.9576 6.05242 29.8446 6.01803 29.7169C5.98002 29.5617 6.0026 29.3978 6.08116 29.2586C6.15973 29.1194 6.28838 29.0154 6.44092 28.9678C29.8816 22.6726 85.9096 14.4684 112.008 10.759L74.2617 12.656C74.1619 12.6619 74.0621 12.6428 73.9715 12.6007C73.8808 12.5585 73.802 12.4945 73.7422 12.4143C66.4925 2.37352 52.3556 9.90111 52.2106 9.99777C52.0635 10.0582 51.8985 10.0582 51.7515 9.99777C51.5966 9.94689 51.4669 9.83885 51.389 9.6957C48.4166 4.12552 41.469 0.935666 34.473 1.93854C31.1 2.38117 27.9577 3.89308 25.5069 6.2525C23.0562 8.61191 21.4261 11.6946 20.8557 15.0484C20.8391 15.1277 20.8069 15.203 20.7612 15.2699C20.7154 15.3368 20.6569 15.3941 20.5891 15.4384C20.5212 15.4827 20.4452 15.5132 20.3656 15.5282C20.2859 15.5432 20.204 15.5423 20.1247 15.5256C20.0454 15.509 19.9701 15.4769 19.9032 15.4311C19.8362 15.3854 19.779 15.3269 19.7347 15.259C19.6904 15.1911 19.6598 15.1152 19.6449 15.0355C19.6299 14.9558 19.6308 14.874 19.6474 14.7946C20.2665 11.2006 22.0218 7.8998 24.6555 5.37706C27.2892 2.85431 30.6624 1.24258 34.2797 0.778581C41.5294 -0.26054 48.7791 2.96557 52.1139 8.65658C54.8446 7.35163 67.3987 2.07145 74.4671 11.4356L125.916 8.82574C126.076 8.81131 126.235 8.86113 126.359 8.96423C126.482 9.06733 126.56 9.21528 126.574 9.3755C126.589 9.53573 126.539 9.69512 126.436 9.81862C126.333 9.94211 126.185 10.0196 126.024 10.034C125.142 10.1548 37.6387 21.851 6.80341 30.1277L6.598 30.164Z" fill="#263238"/>
<path d="M483.34 354.035C483.205 354.033 483.074 353.995 482.963 353.926C481.902 353.274 375.45 288.449 244.27 288.449C113.091 288.449 2.17739 345.758 1.02163 346.326C0.866101 346.406 0.681976 346.428 0.508667 346.387C0.335358 346.347 0.186633 346.247 0.0943221 346.109C0.0488558 346.041 0.0190211 345.965 0.00658494 345.887C-0.00585121 345.808 -0.000636471 345.728 0.0219238 345.652C0.0444841 345.575 0.0839293 345.503 0.137919 345.441C0.191909 345.378 0.259345 345.326 0.336227 345.287C1.45168 344.707 112.688 287.29 244.217 287.29C375.746 287.29 482.654 352.271 483.716 352.935C483.858 353.028 483.956 353.166 483.988 353.321C484.021 353.476 483.986 353.636 483.891 353.769C483.828 353.849 483.746 353.914 483.65 353.961C483.554 354.007 483.448 354.032 483.34 354.035Z" fill="#263238"/>
<path d="M248.38 124.846H194.607C193.03 124.837 191.521 124.204 190.41 123.086C189.298 121.968 188.674 120.456 188.674 118.879C188.674 117.297 189.303 115.779 190.422 114.66C191.541 113.541 193.059 112.912 194.641 112.912H248.415C249.997 112.912 251.515 113.541 252.634 114.66C253.753 115.779 254.382 117.297 254.382 118.879C254.382 119.666 254.226 120.445 253.924 121.171C253.622 121.897 253.18 122.556 252.622 123.111C252.064 123.665 251.402 124.104 250.674 124.402C249.946 124.7 249.167 124.851 248.38 124.846Z" fill="#263238"/>
<path d="M256.984 121.603H163.626C155.042 121.603 148.084 128.561 148.084 137.145V304.345C148.084 312.929 155.042 319.888 163.626 319.888H256.984C265.567 319.888 272.526 312.929 272.526 304.345V137.145C272.526 128.561 265.567 121.603 256.984 121.603Z" fill="#F9C7CA"/>
<g opacity="0.3">
<path d="M256.984 121.603H163.626C155.042 121.603 148.084 128.561 148.084 137.145V304.345C148.084 312.929 155.042 319.888 163.626 319.888H256.984C265.567 319.888 272.526 312.929 272.526 304.345V137.145C272.526 128.561 265.567 121.603 256.984 121.603Z" fill="black"/>
</g>
<path d="M286.542 121.603H193.184C184.6 121.603 177.642 128.561 177.642 137.145V304.345C177.642 312.929 184.6 319.888 193.184 319.888H286.542C295.125 319.888 302.084 312.929 302.084 304.345V137.145C302.084 128.561 295.125 121.603 286.542 121.603Z" fill="#F9C7CA"/>
<path d="M301.026 286.756C301.026 286.999 273.272 287.207 239.1 287.207C204.928 287.207 177.156 286.999 177.156 286.756C177.156 286.513 204.91 286.305 239.1 286.305C273.289 286.305 301.026 286.496 301.026 286.756Z" fill="#263238"/>
<path d="M301.026 259.419C301.026 259.661 273.272 259.87 239.1 259.87C204.928 259.87 177.156 259.661 177.156 259.419C177.156 259.176 204.91 258.968 239.1 258.968C273.289 258.968 301.026 259.176 301.026 259.419Z" fill="#263238"/>
<path d="M301.026 232.15C301.026 232.41 273.272 232.601 239.1 232.601C204.928 232.601 177.156 232.41 177.156 232.15C177.156 231.89 204.91 231.699 239.1 231.699C273.289 231.699 301.026 231.838 301.026 232.15Z" fill="#263238"/>
<path d="M301.026 204.76C301.026 205.003 273.272 205.211 239.1 205.211C204.928 205.211 177.156 205.003 177.156 204.76C177.156 204.518 204.91 204.309 239.1 204.309C273.289 204.309 301.026 204.518 301.026 204.76Z" fill="#263238"/>
<path d="M301.026 177.423C301.026 177.683 273.272 177.874 239.1 177.874C204.928 177.874 177.156 177.683 177.156 177.423C177.156 177.163 204.91 176.972 239.1 176.972C273.289 176.972 301.026 177.18 301.026 177.423Z" fill="#263238"/>
<path d="M301.026 150.102C301.026 150.345 273.272 150.553 239.1 150.553C204.928 150.553 177.156 150.345 177.156 150.102C177.156 149.86 204.91 149.651 239.1 149.651C273.289 149.651 301.026 149.842 301.026 150.102Z" fill="#263238"/>
<path d="M281.442 330.625C281.442 332.749 280.812 334.826 279.631 336.592C278.451 338.358 276.773 339.734 274.81 340.547C272.847 341.359 270.687 341.57 268.603 341.155C266.52 340.739 264.607 339.715 263.106 338.211C261.605 336.708 260.584 334.793 260.171 332.709C259.759 330.625 259.974 328.466 260.79 326.504C261.605 324.542 262.984 322.866 264.752 321.689C266.52 320.511 268.598 319.884 270.722 319.888C273.567 319.892 276.293 321.025 278.303 323.039C280.313 325.052 281.442 327.78 281.442 330.625Z" fill="#263238"/>
<path d="M288.918 330.625C288.918 332.749 288.288 334.825 287.109 336.59C285.929 338.356 284.252 339.732 282.29 340.545C280.328 341.358 278.169 341.57 276.086 341.156C274.003 340.742 272.09 339.719 270.588 338.217C269.087 336.716 268.064 334.802 267.65 332.72C267.235 330.637 267.448 328.478 268.261 326.516C269.074 324.554 270.45 322.877 272.215 321.697C273.981 320.517 276.057 319.888 278.181 319.888C281.029 319.888 283.76 321.019 285.773 323.032C287.787 325.046 288.918 327.777 288.918 330.625Z" fill="#455A64"/>
<path d="M196.046 330.625C196.046 332.749 195.416 334.826 194.235 336.592C193.055 338.358 191.377 339.734 189.414 340.547C187.451 341.359 185.291 341.57 183.208 341.155C181.124 340.739 179.211 339.715 177.71 338.211C176.209 336.708 175.188 334.793 174.776 332.709C174.363 330.625 174.578 328.466 175.394 326.504C176.209 324.542 177.588 322.866 179.356 321.689C181.124 320.511 183.202 319.884 185.326 319.888C188.171 319.892 190.898 321.025 192.907 323.039C194.917 325.052 196.046 327.78 196.046 330.625Z" fill="#263238"/>
<path d="M203.522 330.625C203.522 332.749 202.893 334.825 201.713 336.59C200.533 338.356 198.856 339.732 196.894 340.545C194.932 341.358 192.773 341.57 190.69 341.156C188.608 340.742 186.694 339.719 185.193 338.217C183.691 336.716 182.668 334.802 182.254 332.72C181.84 330.637 182.052 328.478 182.865 326.516C183.678 324.554 185.054 322.877 186.82 321.697C188.586 320.517 190.662 319.888 192.785 319.888C195.633 319.888 198.364 321.019 200.378 323.032C202.391 325.046 203.522 327.777 203.522 330.625Z" fill="#455A64"/>
<path d="M162.759 177.423H161.371C158.076 177.423 155.404 180.094 155.404 183.39V242.298C155.404 245.593 158.076 248.265 161.371 248.265H162.759C166.054 248.265 168.726 245.593 168.726 242.298V183.39C168.726 180.094 166.054 177.423 162.759 177.423Z" fill="#263238"/>
<path d="M164.632 318.118L164.216 317.806L163.002 316.817C161.564 315.422 160.326 313.834 159.324 312.099C156.601 307.589 154.988 299.957 155.04 290.694C155.352 272.151 156.08 246.565 156.774 218.308C157.468 190.051 158.335 164.534 158.873 145.922C158.84 141.734 159.206 137.552 159.966 133.433C160.615 130.301 162.075 127.394 164.199 125.002C165.545 123.491 167.243 122.336 169.142 121.637C169.795 121.397 170.478 121.245 171.172 121.186C171.172 121.186 170.46 121.325 169.194 121.811C167.36 122.57 165.735 123.76 164.459 125.28C162.43 127.656 161.055 130.52 160.469 133.589C159.765 137.678 159.446 141.825 159.515 145.974C159.047 164.552 158.388 190.12 157.676 218.36C156.965 246.6 156.15 272.133 155.629 290.728C155.491 299.957 156.982 307.468 159.567 311.96C160.894 314.285 162.607 316.368 164.632 318.118Z" fill="#263238"/>
</svg>
