<svg width="76" height="76" viewBox="0 0 76 76" fill="none" xmlns="http://www.w3.org/2000/svg">
<circle cx="38" cy="38" r="37" fill="#B6E8E9" stroke="#171A1A" stroke-width="2"/>
<path d="M59 55.8936C59 55.8936 62 55.8936 62 52.8298C62 49.766 59 40.5745 47 40.5745C35 40.5745 32 49.766 32 52.8298C32 55.8936 35 55.8936 35 55.8936H59ZM35.066 52.8298C35.0438 52.8267 35.0218 52.8226 35 52.8176C35.003 52.0087 35.501 49.6618 37.28 47.5478C38.936 45.5655 41.846 43.6383 47 43.6383C52.151 43.6383 55.061 45.5685 56.72 47.5478C58.499 49.6618 58.994 52.0118 59 52.8176L58.976 52.8237C58.9621 52.8261 58.948 52.8281 58.934 52.8298H35.066ZM47 34.4468C48.5913 34.4468 50.1174 33.8012 51.2426 32.6521C52.3679 31.5029 53 29.9443 53 28.3192C53 26.694 52.3679 25.1354 51.2426 23.9863C50.1174 22.8371 48.5913 22.1915 47 22.1915C45.4087 22.1915 43.8826 22.8371 42.7574 23.9863C41.6321 25.1354 41 26.694 41 28.3192C41 29.9443 41.6321 31.5029 42.7574 32.6521C43.8826 33.8012 45.4087 34.4468 47 34.4468ZM56 28.3192C56 29.5262 55.7672 30.7214 55.3149 31.8366C54.8626 32.9518 54.1997 33.965 53.364 34.8185C52.5282 35.672 51.5361 36.3491 50.4442 36.811C49.3522 37.2729 48.1819 37.5107 47 37.5107C45.8181 37.5107 44.6478 37.2729 43.5558 36.811C42.4639 36.3491 41.4718 35.672 40.636 34.8185C39.8003 33.965 39.1374 32.9518 38.6851 31.8366C38.2328 30.7214 38 29.5262 38 28.3192C38 25.8814 38.9482 23.5435 40.636 21.8198C42.3239 20.0961 44.6131 19.1277 47 19.1277C49.3869 19.1277 51.6761 20.0961 53.364 21.8198C55.0518 23.5435 56 25.8814 56 28.3192ZM34.808 41.4324C33.6079 41.0464 32.3709 40.7927 31.118 40.6756C30.414 40.6072 29.7072 40.5735 29 40.5745C17 40.5745 14 49.766 14 52.8298C14 54.8734 14.999 55.8936 17 55.8936H29.648C29.2033 54.9372 28.9815 53.8885 29 52.8298C29 49.7353 30.131 46.5735 32.27 43.9325C32.999 43.0317 33.848 42.1891 34.808 41.4324ZM28.76 43.6383C26.9845 46.3629 26.0253 49.5571 26 52.8298H17C17 52.0332 17.492 49.6741 19.28 47.5478C20.915 45.5992 23.756 43.6996 28.76 43.6414V43.6383ZM18.5 29.8511C18.5 27.4134 19.4482 25.0755 21.136 23.3517C22.8239 21.628 25.1131 20.6596 27.5 20.6596C29.8869 20.6596 32.1761 21.628 33.864 23.3517C35.5518 25.0755 36.5 27.4134 36.5 29.8511C36.5 32.2888 35.5518 34.6267 33.864 36.3505C32.1761 38.0742 29.8869 39.0426 27.5 39.0426C25.1131 39.0426 22.8239 38.0742 21.136 36.3505C19.4482 34.6267 18.5 32.2888 18.5 29.8511ZM27.5 23.7234C25.9087 23.7234 24.3826 24.369 23.2574 25.5182C22.1321 26.6673 21.5 28.2259 21.5 29.8511C21.5 31.4762 22.1321 33.0348 23.2574 34.184C24.3826 35.3332 25.9087 35.9788 27.5 35.9788C29.0913 35.9788 30.6174 35.3332 31.7426 34.184C32.8679 33.0348 33.5 31.4762 33.5 29.8511C33.5 28.2259 32.8679 26.6673 31.7426 25.5182C30.6174 24.369 29.0913 23.7234 27.5 23.7234Z" fill="#171A1A"/>
</svg>
