<svg width="32" height="32" viewBox="0 0 32 32" fill="none" xmlns="http://www.w3.org/2000/svg">
<circle cx="16" cy="16" r="15.7143" fill="#B6E8E9" stroke="#373F3F" stroke-width="0.571429"/>
<path d="M16.0583 9.14203H16.16C17.0995 9.14546 21.8595 9.17974 23.1429 9.52489C23.5309 9.63022 23.8844 9.83554 24.1682 10.1203C24.452 10.4051 24.6561 10.7594 24.76 11.1477C24.8755 11.582 24.9566 12.1569 25.0115 12.75L25.0229 12.8689L25.048 13.166L25.0572 13.2849C25.1315 14.3295 25.1406 15.3077 25.1417 15.5215V15.6072C25.1406 15.8289 25.1303 16.8735 25.048 17.9615L25.0389 18.0815L25.0286 18.2003C24.9715 18.854 24.8869 19.5032 24.76 19.9809C24.6564 20.3694 24.4524 20.7238 24.1686 21.0087C23.8848 21.2935 23.531 21.4987 23.1429 21.6037C21.8172 21.9603 16.7783 21.9855 16.08 21.9866H15.9177C15.5646 21.9866 14.104 21.9797 12.5726 21.9272L12.3783 21.9203L12.2789 21.9157L12.0835 21.9077L11.888 21.8997C10.6195 21.8437 9.41146 21.7535 8.85489 21.6026C8.46688 21.4977 8.11325 21.2926 7.82943 21.008C7.54562 20.7234 7.34157 20.3692 7.23775 19.9809C7.11089 19.5043 7.02632 18.854 6.96918 18.2003L6.96003 18.0803L6.95089 17.9615C6.89449 17.1871 6.86323 16.411 6.85718 15.6346L6.85718 15.494C6.85946 15.2483 6.86861 14.3992 6.93032 13.462L6.93832 13.3443L6.94175 13.2849L6.95089 13.166L6.97603 12.8689L6.98746 12.75C7.04232 12.1569 7.12346 11.5809 7.23889 11.1477C7.34254 10.7592 7.54651 10.4048 7.83034 10.12C8.11417 9.83512 8.46789 9.62991 8.85603 9.52489C9.41261 9.37631 10.6206 9.28489 11.8892 9.22774L12.0835 9.21974L12.28 9.21289L12.3783 9.20946L12.5737 9.20146C13.6614 9.16646 14.7495 9.14703 15.8377 9.14317H16.0583V9.14203ZM14.1715 12.8106V18.3169L18.9223 15.5649L14.1715 12.8106Z" fill="#373F3F"/>
</svg>
