<svg width="25" height="24" viewBox="0 0 25 24" fill="none" xmlns="http://www.w3.org/2000/svg">
<path fill-rule="evenodd" clip-rule="evenodd" d="M2.599 6.969C2.66867 6.89915 2.75143 6.84374 2.84255 6.80593C2.93367 6.76812 3.03135 6.74866 3.13 6.74866C3.22865 6.74866 3.32634 6.76812 3.41745 6.80593C3.50857 6.84374 3.59133 6.89915 3.661 6.969L12.13 15.4395L20.599 6.969C20.6687 6.89927 20.7515 6.84395 20.8426 6.80621C20.9337 6.76847 21.0314 6.74905 21.13 6.74905C21.2286 6.74905 21.3263 6.76847 21.4174 6.80621C21.5085 6.84395 21.5913 6.89927 21.661 6.969C21.7307 7.03873 21.786 7.12151 21.8238 7.21262C21.8615 7.30373 21.8809 7.40138 21.8809 7.5C21.8809 7.59861 21.8615 7.69626 21.8238 7.78737C21.786 7.87848 21.7307 7.96127 21.661 8.031L12.661 17.031C12.5913 17.1008 12.5086 17.1563 12.4175 17.1941C12.3263 17.2319 12.2287 17.2513 12.13 17.2513C12.0314 17.2513 11.9337 17.2319 11.8426 17.1941C11.7514 17.1563 11.6687 17.1008 11.599 17.031L2.599 8.031C2.52916 7.96133 2.47374 7.87857 2.43593 7.78745C2.39812 7.69633 2.37866 7.59865 2.37866 7.5C2.37866 7.40135 2.39812 7.30366 2.43593 7.21255C2.47374 7.12143 2.52916 7.03867 2.599 6.969Z" fill="#373F3F"/>
</svg>
