<svg width="25" height="24" viewBox="0 0 25 24" fill="none" xmlns="http://www.w3.org/2000/svg">
<path d="M12.8165 3.07054C12.7174 3.0244 12.6094 3.00049 12.5 3.00049C12.3907 3.00049 12.2826 3.0244 12.1835 3.07054L0.933516 8.32054C0.80104 8.38238 0.689524 8.48158 0.612683 8.60596C0.535842 8.73033 0.497027 8.87445 0.501011 9.02059C0.504995 9.16674 0.551605 9.30853 0.635109 9.42853C0.718612 9.54853 0.835367 9.64152 0.971016 9.69604L12.221 14.196C12.4001 14.2678 12.5999 14.2678 12.779 14.196L21.5 10.71V19.5C21.1022 19.5 20.7207 19.6581 20.4394 19.9394C20.1581 20.2207 20 20.6022 20 21V24H24.5V21C24.5 20.6022 24.342 20.2207 24.0607 19.9394C23.7794 19.6581 23.3978 19.5 23 19.5V10.1085L24.029 9.69604C24.1647 9.64152 24.2814 9.54853 24.3649 9.42853C24.4484 9.30853 24.495 9.16674 24.499 9.02059C24.503 8.87445 24.4642 8.73033 24.3873 8.60596C24.3105 8.48158 24.199 8.38238 24.0665 8.32054L12.8165 3.07054ZM12.5 12.69L3.13702 8.94754L12.5 4.57804L21.863 8.94754L12.5 12.69Z" fill="#373F3F"/>
<path d="M6.76398 13.5481C6.66741 13.5118 6.56436 13.4957 6.46129 13.501C6.35823 13.5062 6.25736 13.5327 6.16499 13.5788C6.07263 13.6248 5.99077 13.6894 5.92452 13.7685C5.85827 13.8477 5.80906 13.9396 5.77998 14.0386L5.02998 16.5886C4.97745 16.7677 4.99352 16.9598 5.07507 17.1276C5.15661 17.2954 5.29777 17.4268 5.47098 17.4961L12.221 20.1961C12.4001 20.2679 12.5999 20.2679 12.779 20.1961L19.529 17.4961C19.7022 17.4268 19.8434 17.2954 19.9249 17.1276C20.0064 16.9598 20.0225 16.7677 19.97 16.5886L19.22 14.0386C19.1909 13.9396 19.1417 13.8477 19.0754 13.7685C19.0092 13.6894 18.9273 13.6248 18.835 13.5788C18.7426 13.5327 18.6417 13.5062 18.5387 13.501C18.4356 13.4957 18.3326 13.5118 18.236 13.5481L12.5 15.6991L6.76398 13.5481ZM6.66198 16.3576L6.99198 15.2356L12.236 17.2021C12.4062 17.2661 12.5938 17.2661 12.764 17.2021L18.008 15.2356L18.338 16.3576L12.5 18.6901L6.66198 16.3576Z" fill="#373F3F"/>
</svg>
