<svg width="67" height="61" viewBox="0 0 67 61" fill="none" xmlns="http://www.w3.org/2000/svg">
<path d="M56.3681 48.3596C56.1457 47.1738 50.6955 19.4927 35.7923 30.1432C34.9071 30.6964 34.1846 30.7383 33.6746 30.266L33.529 30.1513C32.9746 29.7843 32.6399 28.9097 32.5481 27.5881C31.8596 4.65714 11.5619 12.0586 10.6961 12.3873C10.5717 12.4112 10.4193 12.5181 10.2488 12.7009C10.0783 12.8838 9.89361 13.1386 9.70675 13.4486C9.51989 13.7586 9.33506 14.1169 9.16434 14.5C8.99362 14.8832 8.84083 15.2827 8.71596 15.6723C8.59245 16.0706 8.50007 16.448 8.44437 16.7818C8.38868 17.1155 8.37082 17.3987 8.39189 17.6142C8.43093 18.0821 8.61191 18.2791 8.90306 18.1706C9.10321 18.0975 29.0879 10.8122 29.7265 32.0559C29.8397 34.0144 30.3137 35.3143 31.1145 35.8625L31.2582 35.9757C32.0109 36.6428 33.078 36.5454 34.3829 35.6904C48.1828 25.8297 53.5591 53.0681 53.6074 53.3478C53.6832 53.7481 53.8989 53.8636 54.2162 53.6735C54.3636 53.5907 54.5344 53.428 54.7184 53.1953C54.9025 52.9627 55.0958 52.6648 55.287 52.3197C55.4718 51.9765 55.6488 51.5958 55.8065 51.2023C55.9641 50.8088 56.0988 50.4113 56.202 50.0356C56.3051 49.66 56.3743 49.3146 56.405 49.0218C56.4358 48.7291 56.4274 48.4955 56.3804 48.3363L56.3681 48.3596Z" fill="#F5AAA4"/>
<path d="M56.0414 60.0094C56.1767 60.1792 56.3891 60.1674 56.6569 59.9753C56.9248 59.7832 57.2387 59.4176 57.5672 58.9152C58.2923 57.6957 58.6869 56.0401 58.4468 55.2138C58.1106 54.0262 49.9207 26.3734 34.4425 34.4838C33.5017 34.8847 32.7208 34.816 32.1342 34.2807L31.9662 34.1483C31.3331 33.723 30.899 32.8348 30.6831 31.5229C28.0926 9.18118 6.4396 13.3399 5.51741 13.5254C4.87278 13.6548 4.02089 14.9503 3.60745 16.4153C3.39993 17.2065 3.33204 17.8536 3.41796 18.2215C3.50304 18.6774 3.70991 18.8897 4.01661 18.8358C4.23381 18.7872 25.5438 14.7098 27.944 35.4075C28.2384 37.3576 28.8574 38.6817 29.7727 39.3196L29.9407 39.4519C30.803 40.2151 31.9531 40.2843 33.3385 39.6564C47.6761 32.1417 55.7446 59.3582 55.8223 59.6391C55.8727 59.8107 55.9462 59.9351 56.0414 60.0094Z" fill="#44C5C6"/>
</svg>
