<svg width="78" height="71" viewBox="0 0 78 71" fill="none" xmlns="http://www.w3.org/2000/svg">
<path d="M65.1553 14.3643C64.1443 13.9779 40.3933 5.31727 39.5854 32.1513C39.4785 33.6987 39.0868 34.7221 38.4376 35.1507L38.2673 35.2849C37.6702 35.8366 36.8248 35.7876 35.7893 35.1412C18.3527 22.6769 11.9752 55.0676 11.7128 56.4569C11.6577 56.6429 11.648 56.9161 11.6841 57.2588C11.7202 57.6015 11.8014 58.0058 11.9223 58.4455C12.0433 58.8852 12.2013 59.3504 12.386 59.8106C12.5708 60.2708 12.7781 60.7157 12.9945 61.1163C13.2181 61.5201 13.4444 61.8686 13.6597 62.1408C13.8751 62.4131 14.075 62.6034 14.2474 62.7004C14.6178 62.9202 14.87 62.7852 14.9597 62.3193C15.0226 61.9998 21.3033 30.1097 37.4573 41.656C38.9784 42.6453 40.2213 42.7506 41.097 41.9643L41.2652 41.8319C42.2011 41.1816 42.753 39.6494 42.8814 37.3452C43.6305 12.4985 67.0094 21.0024 67.2455 21.0992C67.5872 21.2287 67.7992 20.998 67.8437 20.4482C67.8683 20.196 67.8474 19.8646 67.7822 19.4741C67.7171 19.0836 67.609 18.642 67.4645 18.1759C67.3176 17.7195 67.1384 17.2521 66.9383 16.8039C66.7382 16.3558 66.5218 15.9369 66.3031 15.5746C66.0844 15.2123 65.8683 14.9145 65.6688 14.7007C65.4693 14.487 65.291 14.3619 65.1452 14.3337L65.1553 14.3643Z" fill="#F5AAA4"/>
<path d="M73.7049 21.7467C73.9102 21.6589 74.0257 21.3585 74.0397 20.8758C74.0537 20.3931 73.9658 19.7452 73.7848 18.9972C73.3032 17.2812 72.3042 15.7671 71.5499 15.6156C70.4711 15.3855 45.1381 10.5288 42.1069 36.6717C41.8543 38.2068 41.3464 39.2461 40.6055 39.7439L40.4089 39.8987C39.7225 40.5251 38.8088 40.6055 37.708 40.1364C19.5963 30.6462 10.017 63.0134 9.61524 64.3968C9.33424 65.3636 9.79813 67.2993 10.6445 68.728C11.1108 69.4778 11.5518 69.9502 11.8753 70.0467C12.2638 70.1958 12.5425 70.034 12.6819 69.5785C12.7728 69.2498 22.2119 37.4044 38.991 46.1959C40.6118 46.9298 41.9576 46.8488 42.9669 45.9567L43.1635 45.8018C44.2349 45.0562 44.9592 43.5067 45.3033 41.2242C48.1097 17.0067 73.0475 21.776 73.3017 21.833C73.4586 21.8637 73.594 21.8347 73.7049 21.7467Z" fill="#44C5C6"/>
</svg>
