<svg width="39" height="40" viewBox="0 0 39 40" fill="none" xmlns="http://www.w3.org/2000/svg">
<path d="M29.1059 31.5063C29.0107 30.7043 26.6781 11.9838 20.2998 19.1867C19.9209 19.5608 19.6117 19.5891 19.3935 19.2697L19.3312 19.1922C19.0939 18.9439 18.9506 18.3525 18.9113 17.4587C18.6167 1.95063 9.92962 6.95615 9.55905 7.17846C9.5058 7.19463 9.44057 7.26692 9.36761 7.3906C9.29465 7.51428 9.2156 7.68657 9.13563 7.89622C9.05565 8.10587 8.97655 8.34818 8.90349 8.60731C8.83042 8.86645 8.76503 9.13659 8.71159 9.40011C8.65873 9.66949 8.61919 9.92473 8.59535 10.1504C8.57151 10.3761 8.56387 10.5676 8.57289 10.7134C8.5896 11.0298 8.66706 11.163 8.79166 11.0897C8.87732 11.0403 17.4304 6.11324 17.7037 20.4802C17.7522 21.8047 17.9551 22.6838 18.2978 23.0546L18.3593 23.1312C18.6814 23.5823 19.1381 23.5164 19.6966 22.9382C25.6027 16.2695 27.9037 34.6906 27.9244 34.8798C27.9568 35.1505 28.0491 35.2286 28.1849 35.1001C28.248 35.044 28.3211 34.934 28.3998 34.7767C28.4786 34.6193 28.5614 34.4179 28.6432 34.1845C28.7223 33.9524 28.798 33.6949 28.8655 33.4288C28.933 33.1626 28.9906 32.8938 29.0348 32.6398C29.0789 32.3857 29.1085 32.1521 29.1217 31.9541C29.1348 31.7562 29.1312 31.5982 29.1112 31.4906L29.1059 31.5063Z" fill="#F5AAA4"/>
<path d="M28.9654 39.385C29.0233 39.4998 29.1142 39.4918 29.2288 39.3619C29.3435 39.232 29.4779 38.9847 29.6184 38.645C29.9288 37.8202 30.0977 36.7005 29.9949 36.1417C29.851 35.3386 26.3459 16.6372 19.7214 22.1222C19.3188 22.3933 18.9846 22.3468 18.7336 21.9848L18.6617 21.8953C18.3907 21.6076 18.2049 21.007 18.1125 20.1197C17.0038 5.01019 7.73671 7.82272 7.34203 7.94815C7.06614 8.03569 6.70155 8.91179 6.5246 9.90257C6.43578 10.4377 6.40673 10.8753 6.4435 11.1241C6.47991 11.4324 6.56845 11.576 6.69971 11.5395C6.79267 11.5066 15.913 8.74913 16.9402 22.7469C17.0662 24.0657 17.3311 24.9612 17.7229 25.3926L17.7948 25.4821C18.1638 25.9982 18.656 26.045 19.249 25.6203C25.3852 20.5382 28.8384 38.9446 28.8716 39.1345C28.8932 39.2506 28.9247 39.3347 28.9654 39.385Z" fill="#44C5C6"/>
</svg>
