<svg width="113" height="111" viewBox="0 0 113 111" fill="none" xmlns="http://www.w3.org/2000/svg">
<g clip-path="url(#clip0_1147_2654)">
<path fill-rule="evenodd" clip-rule="evenodd" d="M110.123 14.3135C111.78 16.8354 114.68 36.5062 105.981 42.0543C115.094 47.6025 112.609 45.585 109.295 48.6112C107.638 52.1419 107.638 59.7076 107.638 62.2295C110.952 64.7514 114.68 64.7514 108.052 67.7776C112.195 72.3171 110.538 88.9616 107.638 93.501C105.567 96.5272 69.5264 111.154 59.5843 109.641C51.7135 108.128 2.00292 95.0141 1.58867 92.4922L4.90271 88.4572C7.80249 68.282 -7.11068 76.8565 6.97398 68.282C2.00292 65.2558 0.345904 44.0718 5.73121 40.5412C-0.482605 38.0193 3.65994 37.5149 6.55972 35.4974C8.21674 18.3485 0.345904 20.8704 2.83143 18.3485C4.48845 16.331 39.2858 -0.313496 43.4284 0.695262C55.4418 3.21716 103.91 7.25219 110.123 14.3135ZM103.495 70.8039C103.495 70.8039 104.738 69.7952 105.981 71.3083C107.638 74.839 107.638 87.9528 104.738 90.4747C101.01 94.0053 71.5977 105.606 60.8271 105.606C63.3126 101.067 62.0698 92.4922 61.6556 90.4747C71.5977 85.4309 92.7247 77.3608 103.495 70.8039ZM59.1701 105.606C54.199 104.597 7.80249 91.9878 7.80249 90.4747C8.21674 85.4309 8.21674 79.8827 6.14547 75.8477C23.1299 80.3871 43.4284 87.4484 60.4128 90.4747C60.8271 92.4922 62.0698 101.571 59.1701 105.606ZM9.87376 44.5762C3.24569 41.0456 5.31696 61.7251 7.80249 63.7426C11.945 67.7776 41.3571 79.3784 52.1277 79.3784C50.0565 74.3346 50.885 66.2645 51.2992 63.7426C40.9429 58.6988 20.2301 50.6288 9.87376 44.5762ZM53.7848 78.874C58.3416 77.8652 104.738 65.2558 104.738 64.247C104.738 59.2032 104.324 53.655 107.224 49.62C89.8249 54.1594 69.5264 61.2207 52.542 64.247C52.1277 66.2645 50.885 74.839 53.7848 78.874ZM104.324 17.3398C104.738 17.3398 106.395 16.331 107.638 17.8441C109.295 20.8704 108.881 34.4886 106.395 36.5062C102.253 40.0368 72.8405 51.6375 62.0698 51.6375C64.5554 47.0981 63.7269 39.028 63.3126 36.5062C73.2547 31.4624 93.9675 23.3923 104.324 17.3398ZM60.8271 51.6375C55.856 50.6288 9.45951 38.0193 9.45951 36.5062C9.87376 31.9667 9.87376 26.4186 7.38823 22.3836C24.7869 26.923 45.0854 33.4799 61.6556 36.5062C62.0698 39.028 63.3126 47.6025 60.8271 51.6375Z" fill="#44C5C6"/>
<path d="M104.324 17.3398C104.738 17.3398 106.395 16.331 107.638 17.8441C109.295 20.8704 108.881 34.4886 106.395 36.5062C102.253 40.0368 72.8405 51.6375 62.0698 51.6375C64.5554 47.0981 63.7269 39.028 63.3126 36.5062C73.2547 31.4624 93.9675 23.3923 104.324 17.3398Z" fill="#F5AAA4"/>
<path d="M60.8271 51.6375C55.856 50.6288 9.45951 38.0193 9.45951 36.5062C9.87376 31.9667 9.87376 26.4186 7.38823 22.3836C24.7869 26.923 45.0854 33.4799 61.6556 36.5062C62.0698 39.028 63.3126 47.6025 60.8271 51.6375Z" fill="#F5AAA4"/>
<path d="M53.7848 78.874C58.3416 77.8652 104.738 65.2558 104.738 64.247C104.738 59.2032 104.324 53.655 107.224 49.62C89.8249 54.1594 69.5264 61.2207 52.542 64.247C52.1277 66.2645 50.885 74.839 53.7848 78.874Z" fill="#F5AAA4"/>
<path d="M9.87376 44.5762C3.24569 41.0456 5.31696 61.7251 7.80249 63.7426C11.945 67.7776 41.3571 79.3784 52.1277 79.3784C50.0565 74.3346 50.885 66.2645 51.2992 63.7426C40.9429 58.6988 20.2301 50.6288 9.87376 44.5762Z" fill="#F5AAA4"/>
<path d="M103.495 70.8039C103.495 70.8039 104.738 69.7952 105.981 71.3083C107.638 74.839 107.638 87.9528 104.738 90.4747C101.01 94.0053 71.5977 105.606 60.8271 105.606C63.3126 101.067 62.0698 92.4922 61.6556 90.4747C71.5977 85.4309 92.7247 77.3608 103.495 70.8039Z" fill="#F5AAA4"/>
<path d="M59.1701 105.606C54.199 104.597 7.80249 91.9878 7.80249 90.4747C8.21674 85.4309 8.21674 79.8827 6.14547 75.8477C23.1299 80.3871 43.4284 87.4484 60.4128 90.4747C60.8271 92.4922 62.0698 101.571 59.1701 105.606Z" fill="#F5AAA4"/>
</g>
<defs>
<clipPath id="clip0_1147_2654">
<rect width="111.482" height="109.832" fill="white" transform="translate(0.821289 0.651123)"/>
</clipPath>
</defs>
</svg>
