<svg width="85" height="101" viewBox="0 0 85 101" fill="none" xmlns="http://www.w3.org/2000/svg">
<g clip-path="url(#clip0_1147_2644)">
<path d="M79.8661 33.1589L80.566 31.3132L73.4915 27.3365C73.4915 27.3365 51.6403 26.1563 49.424 32.0013L53.5297 34.3091L79.8661 33.1589Z" fill="#F2958D"/>
<path d="M49.3608 31.9658C51.5771 26.1208 36.6663 6.63678 36.6663 6.63678L29.5918 2.66016L28.8919 4.50593L45.3183 29.6934L49.3608 31.9658Z" fill="#F2958D"/>
<path fill-rule="evenodd" clip-rule="evenodd" d="M53.238 36.291L83.4033 35.1472C83.7143 35.1354 83.9427 35.5437 83.7969 35.9282L65.3086 84.6873C65.2503 84.8411 65.1288 84.9594 64.9733 84.9653L34.6525 86.115L34.5941 86.2688L25.1194 80.943L25.1486 80.8661L6.16664 51.9096C6.06948 51.7617 6.06464 51.5724 6.12296 51.4186L24.6404 2.5826C24.7571 2.27497 25.0972 2.18627 25.2915 2.48211L44.1422 31.1782L53.238 36.291ZM43.5007 32.8702L25.8289 79.4759L34.9247 84.5887L52.5965 37.983L43.5007 32.8702Z" fill="#44C5C6"/>
<path d="M50.8763 38.882L44.1808 35.1184L27.6755 78.6478L34.371 82.4114L50.8763 38.882Z" fill="#93DDDE"/>
<path fill-rule="evenodd" clip-rule="evenodd" d="M34.9247 84.5887L25.8289 79.4759L43.5007 32.8702L52.5965 37.983L34.9247 84.5887ZM44.1808 35.1184L50.8763 38.882L34.371 82.4114L27.6755 78.6478L44.1808 35.1184Z" fill="#13A6A7"/>
</g>
<defs>
<clipPath id="clip0_1147_2644">
<rect width="68.1125" height="71.8282" fill="white" transform="matrix(0.871721 0.490002 -0.354545 0.935039 25.4663 0.000244141)"/>
</clipPath>
</defs>
</svg>
