<svg width="76" height="76" viewBox="0 0 76 76" fill="none" xmlns="http://www.w3.org/2000/svg">
<circle cx="38" cy="38" r="37" fill="#B6E8E9" stroke="#171A1A" stroke-width="2"/>
<path d="M39.545 16.122C39.0309 16.0833 38.5155 16.0639 38 16.0638V13C38.5896 13.0003 39.179 13.0228 39.767 13.0674L39.545 16.122ZM45.557 17.5008C44.5953 17.1218 43.6077 16.8156 42.602 16.5847L43.259 13.5944C44.408 13.8579 45.539 14.2071 46.637 14.6422L45.557 17.5008ZM49.667 19.6761C49.2381 19.3839 48.7988 19.108 48.35 18.8489L49.829 16.1833C50.8547 16.7769 51.8364 17.4466 52.766 18.1871L50.921 20.6044C50.5143 20.2804 50.096 19.9717 49.667 19.6791V19.6761ZM55.169 25.1603C54.5756 24.2993 53.9208 23.4842 53.21 22.7215L55.382 20.6075C56.192 21.4807 56.942 22.4151 57.623 23.3956L55.169 25.1603ZM57.401 29.3026C57.2041 28.8169 56.9899 28.3386 56.759 27.8688L59.438 26.49C59.9678 27.5657 60.419 28.6799 60.788 29.8235L57.938 30.7825C57.7768 30.2827 57.5977 29.789 57.401 29.3026ZM58.991 36.9837C58.9667 35.9307 58.8665 34.8811 58.691 33.8432L61.646 33.3224C61.847 34.505 61.964 35.706 61.994 36.9071L58.994 36.9837H58.991ZM58.598 41.6958C58.697 41.175 58.778 40.6572 58.841 40.1333L61.82 40.5101C61.6759 41.7055 61.4453 42.8883 61.13 44.0489L58.238 43.2308C58.376 42.7253 58.496 42.2136 58.598 41.6958ZM55.742 48.9847C56.294 48.0962 56.78 47.1648 57.2 46.2027L59.942 47.4436C59.462 48.5466 58.907 49.6066 58.277 50.6238L55.742 48.9847ZM52.85 52.6766C53.216 52.3028 53.567 51.9168 53.9 51.5185L56.174 53.5191C55.7889 53.9752 55.3876 54.4166 54.971 54.8427L52.85 52.6766Z" fill="#171A1A"/>
<path d="M38.0001 16.0638C34.5467 16.0641 31.1467 16.9341 28.1012 18.5968C25.0557 20.2595 22.4587 22.6636 20.5403 25.5962C18.6218 28.5287 17.4411 31.8992 17.1027 35.409C16.7643 38.9189 17.2786 42.4598 18.6002 45.7182C19.9218 48.9765 22.0098 51.8518 24.6793 54.0892C27.3487 56.3266 30.5173 57.8571 33.9043 58.5453C37.2913 59.2334 40.7922 59.0578 44.0969 58.0342C47.4016 57.0105 50.4081 55.1703 52.8501 52.6766L54.9711 54.8427C52.1803 57.6945 48.7438 59.7992 44.9662 60.9704C41.1886 62.1416 37.1864 62.3431 33.3143 61.5571C29.4422 60.771 25.8197 59.0217 22.7677 56.4642C19.7158 53.9066 17.3287 50.6198 15.8179 46.8948C14.3071 43.1699 13.7193 39.1218 14.1065 35.1094C14.4937 31.097 15.844 27.2441 18.0377 23.892C20.2314 20.5399 23.2009 17.7922 26.683 15.8923C30.165 13.9924 34.0522 12.9989 38.0001 13V16.0638Z" fill="#171A1A"/>
<path d="M36.5 22.1914C36.8978 22.1914 37.2794 22.3528 37.5607 22.6401C37.842 22.9274 38 23.317 38 23.7233V39.6859L47.744 45.3723C48.0794 45.579 48.3223 45.9114 48.4209 46.2985C48.5195 46.6856 48.4659 47.0968 48.2715 47.4441C48.0772 47.7914 47.7576 48.0473 47.381 48.1571C47.0043 48.2669 46.6006 48.2219 46.256 48.0317L35.756 41.9041C35.5264 41.7702 35.3356 41.5766 35.2028 41.3431C35.0701 41.1096 35.0001 40.8444 35 40.5744V23.7233C35 23.317 35.158 22.9274 35.4393 22.6401C35.7206 22.3528 36.1022 22.1914 36.5 22.1914Z" fill="#171A1A"/>
</svg>
