<svg width="29" height="19" viewBox="0 0 29 19" fill="none" xmlns="http://www.w3.org/2000/svg">
<path fill-rule="evenodd" clip-rule="evenodd" d="M0 9.9998C0 9.73458 0.105357 9.48023 0.292893 9.29269C0.48043 9.10516 0.734784 8.9998 1 8.9998H24.586L18.292 2.7078C18.1042 2.52003 17.9987 2.26535 17.9987 1.9998C17.9987 1.73425 18.1042 1.47957 18.292 1.2918C18.4798 1.10402 18.7344 0.998535 19 0.998535C19.2656 0.998535 19.5202 1.10402 19.708 1.2918L27.708 9.2918C27.8011 9.38469 27.875 9.49504 27.9254 9.61653C27.9758 9.73802 28.0018 9.86826 28.0018 9.9998C28.0018 10.1313 27.9758 10.2616 27.9254 10.3831C27.875 10.5046 27.8011 10.6149 27.708 10.7078L19.708 18.7078C19.5202 18.8956 19.2656 19.0011 19 19.0011C18.7344 19.0011 18.4798 18.8956 18.292 18.7078C18.1042 18.52 17.9987 18.2653 17.9987 17.9998C17.9987 17.7342 18.1042 17.4796 18.292 17.2918L24.586 10.9998H1C0.734784 10.9998 0.48043 10.8944 0.292893 10.7069C0.105357 10.5194 0 10.265 0 9.9998Z" fill="#13A6A7"/>
</svg>
