<svg width="24" height="24" viewBox="0 0 24 24" fill="none" xmlns="http://www.w3.org/2000/svg">
<path d="M12.4155 0.126101C12.2924 0.0441898 12.1479 0.000488281 12 0.000488281C11.8521 0.000488281 11.7076 0.0441898 11.5845 0.126101L0.3345 7.6261C0.20062 7.71537 0.0990016 7.84533 0.0446537 7.99679C-0.00969416 8.14825 -0.0138893 8.31317 0.032688 8.46719C0.0792652 8.62122 0.174145 8.75618 0.303313 8.85214C0.432481 8.9481 0.589087 8.99998 0.75 9.0001H3.5625V19.5001H2.25C2.05109 19.5001 1.86032 19.5791 1.71967 19.7198C1.57902 19.8604 1.5 20.0512 1.5 20.2501C1.5 20.449 1.57902 20.6398 1.71967 20.7804C1.86032 20.9211 2.05109 21.0001 2.25 21.0001H21.75C21.9489 21.0001 22.1397 20.9211 22.2803 20.7804C22.421 20.6398 22.5 20.449 22.5 20.2501C22.5 20.0512 22.421 19.8604 22.2803 19.7198C22.1397 19.5791 21.9489 19.5001 21.75 19.5001H20.4375V9.0001H23.25C23.4109 8.99998 23.5675 8.9481 23.6967 8.85214C23.8259 8.75618 23.9207 8.62122 23.9673 8.46719C24.0139 8.31317 24.0097 8.14825 23.9553 7.99679C23.901 7.84533 23.7994 7.71537 23.6655 7.6261L12.4155 0.126101ZM18.5625 9.0001V19.5001H16.6875V9.0001H18.5625ZM14.8125 9.0001V19.5001H12.9375V9.0001H14.8125ZM11.0625 9.0001V19.5001H9.1875V9.0001H11.0625ZM7.3125 9.0001V19.5001H5.4375V9.0001H7.3125ZM12 6.0001C11.6022 6.0001 11.2206 5.84207 10.9393 5.56076C10.658 5.27946 10.5 4.89793 10.5 4.5001C10.5 4.10228 10.658 3.72074 10.9393 3.43944C11.2206 3.15814 11.6022 3.0001 12 3.0001C12.3978 3.0001 12.7794 3.15814 13.0607 3.43944C13.342 3.72074 13.5 4.10228 13.5 4.5001C13.5 4.89793 13.342 5.27946 13.0607 5.56076C12.7794 5.84207 12.3978 6.0001 12 6.0001ZM0.75 22.5001C0.551088 22.5001 0.360322 22.5791 0.21967 22.7198C0.0790176 22.8604 0 23.0512 0 23.2501C0 23.449 0.0790176 23.6398 0.21967 23.7804C0.360322 23.9211 0.551088 24.0001 0.75 24.0001H23.25C23.4489 24.0001 23.6397 23.9211 23.7803 23.7804C23.921 23.6398 24 23.449 24 23.2501C24 23.0512 23.921 22.8604 23.7803 22.7198C23.6397 22.5791 23.4489 22.5001 23.25 22.5001H0.75Z" fill="#373F3F"/>
</svg>
