<svg width="16" height="16" viewBox="0 0 16 16" fill="none" xmlns="http://www.w3.org/2000/svg">
<path fill-rule="evenodd" clip-rule="evenodd" d="M5.84937 8V1H6.82426V7.117L8.5235 6.07C8.5992 6.02347 8.68579 5.9989 8.77405 5.9989C8.8623 5.9989 8.94889 6.02347 9.02459 6.07L10.7238 7.117V1H11.6987V8C11.6987 8.08847 11.6759 8.17535 11.6325 8.25179C11.5891 8.32823 11.5266 8.39149 11.4516 8.43511C11.3766 8.47873 11.2916 8.50114 11.2054 8.50007C11.1191 8.49899 11.0347 8.47447 10.9607 8.429L8.77405 7.083L6.58736 8.43C6.51331 8.47552 6.4288 8.50004 6.34248 8.50107C6.25616 8.5021 6.17112 8.4796 6.09606 8.43586C6.02099 8.39213 5.9586 8.32873 5.91526 8.25215C5.87191 8.17557 5.84918 8.08855 5.84937 8Z" fill="#85524E"/>
<path d="M2.92464 0H12.6736C13.1907 0 13.6866 0.210714 14.0523 0.585786C14.4179 0.960859 14.6234 1.46957 14.6234 2V14C14.6234 14.5304 14.4179 15.0391 14.0523 15.4142C13.6866 15.7893 13.1907 16 12.6736 16H2.92464C2.40752 16 1.91159 15.7893 1.54593 15.4142C1.18028 15.0391 0.974854 14.5304 0.974854 14V13H1.94975V14C1.94975 14.2652 2.05246 14.5196 2.23529 14.7071C2.41811 14.8946 2.66608 15 2.92464 15H12.6736C12.9321 15 13.1801 14.8946 13.3629 14.7071C13.5458 14.5196 13.6485 14.2652 13.6485 14V2C13.6485 1.73478 13.5458 1.48043 13.3629 1.29289C13.1801 1.10536 12.9321 1 12.6736 1H2.92464C2.66608 1 2.41811 1.10536 2.23529 1.29289C2.05246 1.48043 1.94975 1.73478 1.94975 2V3H0.974854V2C0.974854 1.46957 1.18028 0.960859 1.54593 0.585786C1.91159 0.210714 2.40752 0 2.92464 0Z" fill="#85524E"/>
<path d="M0.974893 5V4.5C0.974893 4.36739 1.02625 4.24021 1.11766 4.14645C1.20908 4.05268 1.33306 4 1.46234 4C1.59162 4 1.7156 4.05268 1.80702 4.14645C1.89843 4.24021 1.94979 4.36739 1.94979 4.5V5H2.43723C2.56651 5 2.6905 5.05268 2.78191 5.14645C2.87332 5.24021 2.92468 5.36739 2.92468 5.5C2.92468 5.63261 2.87332 5.75979 2.78191 5.85355C2.6905 5.94732 2.56651 6 2.43723 6H0.487447C0.358168 6 0.234184 5.94732 0.14277 5.85355C0.0513558 5.75979 0 5.63261 0 5.5C0 5.36739 0.0513558 5.24021 0.14277 5.14645C0.234184 5.05268 0.358168 5 0.487447 5H0.974893ZM0.974893 8V7.5C0.974893 7.36739 1.02625 7.24021 1.11766 7.14645C1.20908 7.05268 1.33306 7 1.46234 7C1.59162 7 1.7156 7.05268 1.80702 7.14645C1.89843 7.24021 1.94979 7.36739 1.94979 7.5V8H2.43723C2.56651 8 2.6905 8.05268 2.78191 8.14645C2.87332 8.24021 2.92468 8.36739 2.92468 8.5C2.92468 8.63261 2.87332 8.75979 2.78191 8.85355C2.6905 8.94732 2.56651 9 2.43723 9H0.487447C0.358168 9 0.234184 8.94732 0.14277 8.85355C0.0513558 8.75979 0 8.63261 0 8.5C0 8.36739 0.0513558 8.24021 0.14277 8.14645C0.234184 8.05268 0.358168 8 0.487447 8H0.974893ZM0.974893 11V10.5C0.974893 10.3674 1.02625 10.2402 1.11766 10.1464C1.20908 10.0527 1.33306 10 1.46234 10C1.59162 10 1.7156 10.0527 1.80702 10.1464C1.89843 10.2402 1.94979 10.3674 1.94979 10.5V11H2.43723C2.56651 11 2.6905 11.0527 2.78191 11.1464C2.87332 11.2402 2.92468 11.3674 2.92468 11.5C2.92468 11.6326 2.87332 11.7598 2.78191 11.8536C2.6905 11.9473 2.56651 12 2.43723 12H0.487447C0.358168 12 0.234184 11.9473 0.14277 11.8536C0.0513558 11.7598 0 11.6326 0 11.5C0 11.3674 0.0513558 11.2402 0.14277 11.1464C0.234184 11.0527 0.358168 11 0.487447 11H0.974893Z" fill="#85524E"/>
</svg>
