<svg width="16" height="16" viewBox="0 0 16 16" fill="none" xmlns="http://www.w3.org/2000/svg">
<path d="M1 6.6219C1.885 6.31131 3.154 5.97638 4.388 5.87229C5.718 5.7598 6.846 5.92517 7.5 6.50354V14.6847C6.565 14.2398 5.38 14.1785 4.287 14.2709C3.107 14.3716 1.917 14.6579 1 14.9517V6.6219ZM8.5 6.50354C9.154 5.92517 10.282 5.7598 11.612 5.87229C12.846 5.97638 14.115 6.31131 15 6.6219V14.9517C14.082 14.6579 12.893 14.3708 11.713 14.2717C10.619 14.1785 9.435 14.239 8.5 14.6847V6.50354ZM8 5.74469C7.015 5.03369 5.587 4.92792 4.287 5.03704C2.773 5.16548 1.245 5.60115 0.293 5.96462C0.205649 5.99797 0.131575 6.05172 0.079621 6.11944C0.0276667 6.18717 2.65714e-05 6.26601 0 6.34657L0 15.5804C2.3162e-05 15.6506 0.0210371 15.7197 0.0611171 15.7814C0.101197 15.843 0.159062 15.8952 0.229411 15.9332C0.29976 15.9712 0.380345 15.9938 0.463783 15.9989C0.547222 16.004 0.630848 15.9914 0.707 15.9623C1.589 15.6266 3.01 15.2228 4.387 15.1061C5.796 14.9869 6.977 15.1791 7.61 15.8423C7.65685 15.8913 7.71622 15.9309 7.78372 15.9581C7.85122 15.9853 7.92513 15.9994 8 15.9994C8.07487 15.9994 8.14878 15.9853 8.21628 15.9581C8.28378 15.9309 8.34315 15.8913 8.39 15.8423C9.023 15.1791 10.204 14.9869 11.612 15.1061C12.99 15.2228 14.412 15.6266 15.293 15.9623C15.3692 15.9914 15.4528 16.004 15.5362 15.9989C15.6197 15.9938 15.7002 15.9712 15.7706 15.9332C15.8409 15.8952 15.8988 15.843 15.9389 15.7814C15.979 15.7197 16 15.6506 16 15.5804V6.34657C16 6.26601 15.9723 6.18717 15.9204 6.11944C15.8684 6.05172 15.7944 5.99797 15.707 5.96462C14.755 5.60115 13.227 5.16548 11.713 5.03704C10.413 4.92708 8.985 5.03369 8 5.74469Z" fill="black"/>
</svg>
