<svg width="16" height="11" viewBox="0 0 16 11" fill="none" xmlns="http://www.w3.org/2000/svg">
<path d="M1 1.6219C1.885 1.31131 3.154 0.976376 4.388 0.872285C5.718 0.7598 6.846 0.92517 7.5 1.50354V9.68471C6.565 9.23981 5.38 9.17853 4.287 9.27087C3.107 9.3716 1.917 9.65785 1 9.95166V1.6219ZM8.5 1.50354C9.154 0.92517 10.282 0.7598 11.612 0.872285C12.846 0.976376 14.115 1.31131 15 1.6219V9.95166C14.082 9.65785 12.893 9.37076 11.713 9.27171C10.619 9.17853 9.435 9.23897 8.5 9.68471V1.50354ZM8 0.74469C7.015 0.0336857 5.587 -0.0720836 4.287 0.0370435C2.773 0.165478 1.245 0.601146 0.293 0.964624C0.205649 0.997973 0.131575 1.05172 0.079621 1.11944C0.0276667 1.18717 2.65714e-05 1.26601 0 1.34657L0 10.5804C2.3162e-05 10.6506 0.0210371 10.7197 0.0611171 10.7814C0.101197 10.843 0.159062 10.8952 0.229411 10.9332C0.29976 10.9712 0.380345 10.9938 0.463783 10.9989C0.547222 11.004 0.630848 10.9914 0.707 10.9623C1.589 10.6266 3.01 10.2228 4.387 10.1061C5.796 9.98691 6.977 10.1791 7.61 10.8423C7.65685 10.8913 7.71622 10.9309 7.78372 10.9581C7.85122 10.9853 7.92513 10.9994 8 10.9994C8.07487 10.9994 8.14878 10.9853 8.21628 10.9581C8.28378 10.9309 8.34315 10.8913 8.39 10.8423C9.023 10.1791 10.204 9.98691 11.612 10.1061C12.99 10.2228 14.412 10.6266 15.293 10.9623C15.3692 10.9914 15.4528 11.004 15.5362 10.9989C15.6197 10.9938 15.7002 10.9712 15.7706 10.9332C15.8409 10.8952 15.8988 10.843 15.9389 10.7814C15.979 10.7197 16 10.6506 16 10.5804V1.34657C16 1.26601 15.9723 1.18717 15.9204 1.11944C15.8684 1.05172 15.7944 0.997973 15.707 0.964624C14.755 0.601146 13.227 0.165478 11.713 0.0370435C10.413 -0.072923 8.985 0.0336857 8 0.74469Z" fill="#373F3F"/>
</svg>
