<svg width="16" height="16" viewBox="0 0 16 16" fill="none" xmlns="http://www.w3.org/2000/svg">
<g clip-path="url(#clip0_2266_5064)">
<path d="M0 2C0 1.73478 0.102712 1.48043 0.28554 1.29289C0.468368 1.10536 0.716335 1 0.974893 1H14.6234C14.882 1 15.1299 1.10536 15.3128 1.29289C15.4956 1.48043 15.5983 1.73478 15.5983 2V4C15.5983 4.26522 15.4956 4.51957 15.3128 4.70711C15.1299 4.89464 14.882 5 14.6234 5V12.5C14.6234 13.163 14.3666 13.7989 13.9095 14.2678C13.4525 14.7366 12.8326 15 12.1862 15H3.41213C2.76573 15 2.14581 14.7366 1.68874 14.2678C1.23167 13.7989 0.974893 13.163 0.974893 12.5V5C0.716335 5 0.468368 4.89464 0.28554 4.70711C0.102712 4.51957 0 4.26522 0 4V2ZM1.94979 5V12.5C1.94979 12.8978 2.10385 13.2794 2.3781 13.5607C2.65234 13.842 3.02429 14 3.41213 14H12.1862C12.574 14 12.946 13.842 13.2202 13.5607C13.4944 13.2794 13.6485 12.8978 13.6485 12.5V5H1.94979ZM14.6234 2H0.974893V4H14.6234V2ZM4.87447 7.5C4.87447 7.36739 4.92582 7.24021 5.01724 7.14645C5.10865 7.05268 5.23263 7 5.36191 7H10.2364C10.3657 7 10.4896 7.05268 10.5811 7.14645C10.6725 7.24021 10.7238 7.36739 10.7238 7.5C10.7238 7.63261 10.6725 7.75979 10.5811 7.85355C10.4896 7.94732 10.3657 8 10.2364 8H5.36191C5.23263 8 5.10865 7.94732 5.01724 7.85355C4.92582 7.75979 4.87447 7.63261 4.87447 7.5Z" fill="#85524E"/>
</g>
<defs>
<clipPath id="clip0_2266_5064">
<rect width="15.5983" height="16" fill="white"/>
</clipPath>
</defs>
</svg>
