<svg width="17" height="16" viewBox="0 0 17 16" fill="none" xmlns="http://www.w3.org/2000/svg">
<path d="M13.8705 7.04639H8.09771C7.96488 7.04639 7.85718 7.16866 7.85718 7.31946C7.85718 7.47026 7.96488 7.59253 8.09771 7.59253H13.8705C14.0034 7.59253 14.1111 7.47026 14.1111 7.31946C14.1111 7.16866 14.0034 7.04639 13.8705 7.04639Z" fill="#85524E"/>
<path d="M13.8705 9.23083H8.09771C7.96488 9.23083 7.85718 9.35311 7.85718 9.50391C7.85718 9.65471 7.96488 9.77698 8.09771 9.77698H13.8705C14.0034 9.77698 14.1111 9.65471 14.1111 9.50391C14.1111 9.35311 14.0034 9.23083 13.8705 9.23083Z" fill="#85524E"/>
<path d="M13.8705 11.4156H8.09771C7.96488 11.4156 7.85718 11.5379 7.85718 11.6887C7.85718 11.8395 7.96488 11.9618 8.09771 11.9618H13.8705C14.0034 11.9618 14.1111 11.8395 14.1111 11.6887C14.1111 11.5379 14.0034 11.4156 13.8705 11.4156Z" fill="#85524E"/>
<path d="M4.40844 6.5C3.76977 6.50049 3.1602 6.75333 2.72553 7.19791C2.29099 7.64263 2.07056 8.23899 2.11724 8.84415C2.16381 9.44931 2.47328 10.0088 2.97147 10.3886V12.2345C2.97301 12.3298 3.02484 12.418 3.10939 12.4693C3.19638 12.5102 3.29838 12.5102 3.38537 12.4693L4.40842 11.9832L5.43148 12.4693C5.47113 12.4868 5.51423 12.4961 5.55799 12.4966C5.6102 12.495 5.6614 12.482 5.70746 12.4584C5.78867 12.4093 5.84012 12.3259 5.84538 12.2345V10.3886C6.34357 10.0088 6.65304 9.44927 6.69961 8.84415C6.74632 8.23899 6.52589 7.64263 6.09132 7.19791C5.65665 6.75332 5.04711 6.50047 4.40844 6.5ZM5.27062 11.792L4.53496 11.4425C4.4549 11.4062 4.36201 11.4062 4.28195 11.4425L3.54629 11.792V10.6997C4.09812 10.9182 4.71882 10.9182 5.27065 10.6997L5.27062 11.792ZM5.67297 9.79856C5.58111 9.89243 5.47898 9.97654 5.36839 10.0498C5.08561 10.2283 4.75369 10.3235 4.41421 10.3235C4.07472 10.3235 3.74282 10.2283 3.46003 10.0498C3.34943 9.97654 3.2473 9.89243 3.15544 9.79856C2.84957 9.48513 2.68484 9.07066 2.69614 8.64335C2.70744 8.21605 2.8941 7.81 3.21614 7.51156C3.53817 7.21325 3.97016 7.04624 4.41998 7.04624C4.86966 7.04624 5.3018 7.21326 5.62381 7.51156C5.94585 7.80998 6.13238 8.21605 6.14368 8.64335C6.1551 9.07063 5.99023 9.48513 5.68451 9.79856H5.67297Z" fill="#85524E"/>
<rect x="0.611084" y="3.5" width="15" height="12" rx="1.5" stroke="#85524E"/>
</svg>
