<svg width="15" height="16" viewBox="0 0 15 16" fill="none" xmlns="http://www.w3.org/2000/svg">
<path fill-rule="evenodd" clip-rule="evenodd" d="M10.5814 7.14604C10.6268 7.19248 10.6628 7.24766 10.6874 7.30841C10.712 7.36915 10.7246 7.43427 10.7246 7.50004C10.7246 7.56581 10.712 7.63093 10.6874 7.69167C10.6628 7.75242 10.6268 7.80759 10.5814 7.85404L7.65672 10.854C7.61144 10.9006 7.55765 10.9375 7.49843 10.9628C7.43921 10.988 7.37572 11.0009 7.31161 11.0009C7.24749 11.0009 7.18401 10.988 7.12479 10.9628C7.06557 10.9375 7.01178 10.9006 6.9665 10.854L5.50416 9.35404C5.45884 9.30755 5.42289 9.25236 5.39836 9.19162C5.37383 9.13088 5.36121 9.06578 5.36121 9.00004C5.36121 8.9343 5.37383 8.86919 5.39836 8.80846C5.42289 8.74772 5.45884 8.69253 5.50416 8.64604C5.59569 8.55215 5.71983 8.49941 5.84927 8.49941C5.91336 8.49941 5.97683 8.51236 6.03604 8.53752C6.09526 8.56267 6.14906 8.59955 6.19438 8.64604L7.31161 9.79304L9.89118 7.14604C9.93645 7.09948 9.99025 7.06253 10.0495 7.03733C10.1087 7.01212 10.1722 6.99915 10.2363 6.99915C10.3004 6.99915 10.3639 7.01212 10.4231 7.03733C10.4823 7.06253 10.5361 7.09948 10.5814 7.14604Z" fill="#85524E"/>
<path d="M3.89953 1.5H2.92464C2.40752 1.5 1.91159 1.71071 1.54593 2.08579C1.18028 2.46086 0.974854 2.96957 0.974854 3.5V14C0.974854 14.5304 1.18028 15.0391 1.54593 15.4142C1.91159 15.7893 2.40752 16 2.92464 16H12.6736C13.1907 16 13.6866 15.7893 14.0523 15.4142C14.4179 15.0391 14.6234 14.5304 14.6234 14V3.5C14.6234 2.96957 14.4179 2.46086 14.0523 2.08579C13.6866 1.71071 13.1907 1.5 12.6736 1.5H11.6987V2.5H12.6736C12.9321 2.5 13.1801 2.60536 13.3629 2.79289C13.5458 2.98043 13.6485 3.23478 13.6485 3.5V14C13.6485 14.2652 13.5458 14.5196 13.3629 14.7071C13.1801 14.8946 12.9321 15 12.6736 15H2.92464C2.66608 15 2.41811 14.8946 2.23529 14.7071C2.05246 14.5196 1.94975 14.2652 1.94975 14V3.5C1.94975 3.23478 2.05246 2.98043 2.23529 2.79289C2.41811 2.60536 2.66608 2.5 2.92464 2.5H3.89953V1.5Z" fill="#85524E"/>
<path d="M9.26141 1C9.39069 1 9.51467 1.05268 9.60609 1.14645C9.6975 1.24021 9.74886 1.36739 9.74886 1.5V2.5C9.74886 2.63261 9.6975 2.75979 9.60609 2.85355C9.51467 2.94732 9.39069 3 9.26141 3H6.33673C6.20745 3 6.08347 2.94732 5.99205 2.85355C5.90064 2.75979 5.84928 2.63261 5.84928 2.5V1.5C5.84928 1.36739 5.90064 1.24021 5.99205 1.14645C6.08347 1.05268 6.20745 1 6.33673 1H9.26141ZM6.33673 0C5.94889 0 5.57694 0.158035 5.3027 0.43934C5.02846 0.720644 4.87439 1.10218 4.87439 1.5V2.5C4.87439 2.89782 5.02846 3.27936 5.3027 3.56066C5.57694 3.84196 5.94889 4 6.33673 4H9.26141C9.64925 4 10.0212 3.84196 10.2954 3.56066C10.5697 3.27936 10.7237 2.89782 10.7237 2.5V1.5C10.7237 1.10218 10.5697 0.720644 10.2954 0.43934C10.0212 0.158035 9.64925 0 9.26141 0L6.33673 0Z" fill="#85524E"/>
</svg>
