<svg width="16" height="16" viewBox="0 0 16 16" fill="none" xmlns="http://www.w3.org/2000/svg">
<g clip-path="url(#clip0_2266_5058)">
<path d="M1.94979 1C1.69123 1 1.44326 1.10536 1.26043 1.29289C1.0776 1.48043 0.974893 1.73478 0.974893 2V10C0.974893 10.2652 1.0776 10.5196 1.26043 10.7071C1.44326 10.8946 1.69123 11 1.94979 11H11.2951C11.8122 11.0001 12.308 11.2109 12.6736 11.586L14.6234 13.586V2C14.6234 1.73478 14.5207 1.48043 14.3379 1.29289C14.155 1.10536 13.9071 1 13.6485 1H1.94979ZM13.6485 0C14.1656 0 14.6616 0.210714 15.0272 0.585786C15.3929 0.960859 15.5983 1.46957 15.5983 2V14.793C15.5983 14.8919 15.5696 14.9886 15.516 15.0709C15.4624 15.1531 15.3862 15.2172 15.297 15.255C15.2079 15.2928 15.1098 15.3026 15.0153 15.2832C14.9207 15.2638 14.8338 15.216 14.7657 15.146L11.9844 12.293C11.8016 12.1055 11.5536 12.0001 11.2951 12H1.94979C1.43267 12 0.936735 11.7893 0.571079 11.4142C0.205423 11.0391 0 10.5304 0 10V2C0 1.46957 0.205423 0.960859 0.571079 0.585786C0.936735 0.210714 1.43267 0 1.94979 0L13.6485 0Z" fill="#85524E"/>
<path d="M2.92468 3.5C2.92468 3.36739 2.97604 3.24021 3.06745 3.14645C3.15887 3.05268 3.28285 3 3.41213 3H12.1862C12.3154 3 12.4394 3.05268 12.5308 3.14645C12.6223 3.24021 12.6736 3.36739 12.6736 3.5C12.6736 3.63261 12.6223 3.75979 12.5308 3.85355C12.4394 3.94732 12.3154 4 12.1862 4H3.41213C3.28285 4 3.15887 3.94732 3.06745 3.85355C2.97604 3.75979 2.92468 3.63261 2.92468 3.5ZM2.92468 6C2.92468 5.86739 2.97604 5.74021 3.06745 5.64645C3.15887 5.55268 3.28285 5.5 3.41213 5.5H12.1862C12.3154 5.5 12.4394 5.55268 12.5308 5.64645C12.6223 5.74021 12.6736 5.86739 12.6736 6C12.6736 6.13261 12.6223 6.25979 12.5308 6.35355C12.4394 6.44732 12.3154 6.5 12.1862 6.5H3.41213C3.28285 6.5 3.15887 6.44732 3.06745 6.35355C2.97604 6.25979 2.92468 6.13261 2.92468 6ZM2.92468 8.5C2.92468 8.36739 2.97604 8.24021 3.06745 8.14645C3.15887 8.05268 3.28285 8 3.41213 8H8.28659C8.41587 8 8.53986 8.05268 8.63127 8.14645C8.72269 8.24021 8.77404 8.36739 8.77404 8.5C8.77404 8.63261 8.72269 8.75979 8.63127 8.85355C8.53986 8.94732 8.41587 9 8.28659 9H3.41213C3.28285 9 3.15887 8.94732 3.06745 8.85355C2.97604 8.75979 2.92468 8.63261 2.92468 8.5Z" fill="#85524E"/>
</g>
<defs>
<clipPath id="clip0_2266_5058">
<rect width="15.5983" height="16" fill="white"/>
</clipPath>
</defs>
</svg>
