<svg width="25" height="24" viewBox="0 0 25 24" fill="none" xmlns="http://www.w3.org/2000/svg">
<path d="M1.25 14.85C1.44891 14.85 1.63968 14.929 1.78033 15.0697C1.92098 15.2103 2 15.4011 2 15.6V19.35C2 19.7478 2.15804 20.1294 2.43934 20.4107C2.72064 20.692 3.10218 20.85 3.5 20.85H21.5C21.8978 20.85 22.2794 20.692 22.5607 20.4107C22.842 20.1294 23 19.7478 23 19.35V15.6C23 15.4011 23.079 15.2103 23.2197 15.0697C23.3603 14.929 23.5511 14.85 23.75 14.85C23.9489 14.85 24.1397 14.929 24.2803 15.0697C24.421 15.2103 24.5 15.4011 24.5 15.6V19.35C24.5 20.1456 24.1839 20.9087 23.6213 21.4713C23.0587 22.0339 22.2956 22.35 21.5 22.35H3.5C2.70435 22.35 1.94129 22.0339 1.37868 21.4713C0.816071 20.9087 0.5 20.1456 0.5 19.35V15.6C0.5 15.4011 0.579018 15.2103 0.71967 15.0697C0.860322 14.929 1.05109 14.85 1.25 14.85Z" fill="black"/>
<path d="M11.9699 17.781C12.0396 17.8508 12.1224 17.9063 12.2135 17.9441C12.3046 17.9819 12.4023 18.0013 12.5009 18.0013C12.5996 18.0013 12.6973 17.9819 12.7884 17.9441C12.8795 17.9063 12.9623 17.8508 13.0319 17.781L17.5319 13.281C17.6728 13.1402 17.7519 12.9492 17.7519 12.75C17.7519 12.5508 17.6728 12.3598 17.5319 12.219C17.3911 12.0782 17.2001 11.9991 17.0009 11.9991C16.8018 11.9991 16.6108 12.0782 16.4699 12.219L13.2509 15.4395V2.25C13.2509 2.05109 13.1719 1.86032 13.0313 1.71967C12.8906 1.57902 12.6999 1.5 12.5009 1.5C12.302 1.5 12.1113 1.57902 11.9706 1.71967C11.83 1.86032 11.7509 2.05109 11.7509 2.25V15.4395L8.53195 12.219C8.39112 12.0782 8.20011 11.9991 8.00095 11.9991C7.80178 11.9991 7.61078 12.0782 7.46995 12.219C7.32912 12.3598 7.25 12.5508 7.25 12.75C7.25 12.9492 7.32912 13.1402 7.46995 13.281L11.9699 17.781Z" fill="black"/>
</svg>
