<svg width="32" height="32" viewBox="0 0 32 32" fill="none" xmlns="http://www.w3.org/2000/svg">
<path d="M27.1998 5.59996C27.1998 5.38779 27.1155 5.1843 26.9655 5.03427C26.8155 4.88424 26.612 4.79996 26.3998 4.79996C26.1876 4.79996 25.9841 4.88424 25.8341 5.03427C25.6841 5.1843 25.5998 5.38779 25.5998 5.59996V26.4C25.5998 26.6121 25.6841 26.8156 25.8341 26.9656C25.9841 27.1157 26.1876 27.2 26.3998 27.2C26.612 27.2 26.8155 27.1157 26.9655 26.9656C27.1155 26.8156 27.1998 26.6121 27.1998 26.4V5.59996ZM4.7998 6.80316C4.7998 5.20316 6.587 4.25116 7.915 5.14236L21.515 14.2736C21.7865 14.4558 22.0092 14.7019 22.1636 14.9902C22.3179 15.2786 22.3992 15.6003 22.4003 15.9274C22.4014 16.2544 22.3223 16.5767 22.1699 16.8661C22.0175 17.1555 21.7965 17.4031 21.5262 17.5872L7.9262 26.856C7.62563 27.0608 7.27487 27.1798 6.91169 27.2002C6.54851 27.2205 6.18665 27.1414 5.86507 26.9714C5.54349 26.8014 5.27436 26.5469 5.08666 26.2354C4.89895 25.9238 4.79978 25.5669 4.7998 25.2032V6.80316ZM7.0238 6.47196C6.96366 6.4313 6.89358 6.40778 6.82108 6.40392C6.74858 6.40006 6.6764 6.416 6.61228 6.45004C6.54815 6.48408 6.49449 6.53492 6.45706 6.59713C6.41963 6.65934 6.39984 6.73056 6.3998 6.80316V25.2032C6.3998 25.5232 6.7598 25.7152 7.0254 25.5344L20.6254 16.2656C20.6793 16.2286 20.7234 16.1791 20.7538 16.1212C20.7841 16.0633 20.7998 15.9989 20.7995 15.9335C20.7992 15.8681 20.7829 15.8039 20.752 15.7463C20.7211 15.6887 20.6765 15.6395 20.6222 15.6032L7.0238 6.47196Z" fill="#373F3F"/>
</svg>
