<svg width="19" height="20" viewBox="0 0 19 20" fill="none" xmlns="http://www.w3.org/2000/svg">
<path d="M7.43746 1.25C7.6861 1.25 7.92456 1.34877 8.10037 1.52459C8.27619 1.7004 8.37496 1.93886 8.37496 2.1875V10C8.37496 10.1658 8.44081 10.3247 8.55802 10.4419C8.67523 10.5592 8.8342 10.625 8.99996 10.625C9.16572 10.625 9.32469 10.5592 9.4419 10.4419C9.55911 10.3247 9.62496 10.1658 9.62496 10V6.83375L9.73246 6.82875C10.1287 6.81375 10.5287 6.81875 10.7525 6.8625C10.92 6.89625 11.12 6.9825 11.3125 7.09C11.4087 7.1425 11.5 7.27375 11.5 7.4825V10C11.5 10.1658 11.5658 10.3247 11.683 10.4419C11.8002 10.5592 11.9592 10.625 12.125 10.625C12.2907 10.625 12.4497 10.5592 12.5669 10.4419C12.6841 10.3247 12.75 10.1658 12.75 10V8.04375L12.8825 8.03125C13.2775 8.00125 13.6125 8.01875 13.7675 8.08125C13.915 8.13875 14.1425 8.34 14.375 8.61875C14.4762 8.73875 14.5625 8.85625 14.625 8.9425V10.625C14.625 10.7908 14.6908 10.9497 14.808 11.0669C14.9252 11.1842 15.0842 11.25 15.25 11.25C15.4157 11.25 15.5747 11.1842 15.6919 11.0669C15.8091 10.9497 15.875 10.7908 15.875 10.625V9.375H16.3025C16.4772 9.375 16.6499 9.41161 16.8096 9.48249C16.9693 9.55336 17.1123 9.65691 17.2295 9.78647C17.3467 9.91603 17.4354 10.0687 17.49 10.2347C17.5445 10.4006 17.5637 10.5762 17.5462 10.75L17.2075 14.1437C17.1637 14.5799 17.0287 15.0019 16.8112 15.3825L15.0675 18.435C15.0128 18.5307 14.9339 18.6102 14.8386 18.6655C14.7433 18.7208 14.6351 18.75 14.525 18.75H6.64746C6.53149 18.75 6.4178 18.7177 6.31912 18.6568C6.22045 18.5959 6.14067 18.5087 6.08871 18.405L4.54871 15.3237L1.40871 10.0925C1.32804 9.95725 1.29953 9.79719 1.32854 9.6424C1.35756 9.48761 1.4421 9.34874 1.56628 9.25188C1.69045 9.15502 1.84573 9.10684 2.00293 9.1164C2.16012 9.12595 2.30842 9.19257 2.41996 9.30375L5.43246 12.3162C5.5198 12.4038 5.63115 12.4635 5.75242 12.4877C5.87368 12.512 5.99942 12.4997 6.11371 12.4525C6.228 12.4052 6.32571 12.3251 6.39446 12.2223C6.46322 12.1196 6.49993 11.9987 6.49996 11.875V2.1875C6.49996 1.93886 6.59873 1.7004 6.77455 1.52459C6.95036 1.34877 7.18882 1.25 7.43746 1.25ZM9.62496 5.5825V2.1875C9.62496 1.60734 9.39449 1.05094 8.98426 0.640704C8.57402 0.230468 8.01762 0 7.43746 0C6.8573 0 6.3009 0.230468 5.89066 0.640704C5.48043 1.05094 5.24996 1.60734 5.24996 2.1875V10.3663L3.30371 8.42C2.97625 8.09434 2.5412 7.89938 2.08021 7.87171C1.61922 7.84403 1.16397 7.98554 0.799898 8.26968C0.435828 8.55381 0.187964 8.96105 0.102822 9.41495C0.0176791 9.86886 0.101111 10.3382 0.33746 10.735L3.45121 15.9263L4.96996 18.9637C5.12575 19.2752 5.36521 19.5372 5.6615 19.7202C5.95779 19.9032 6.2992 20.0001 6.64746 20H14.525C14.8555 19.9999 15.18 19.9124 15.4659 19.7465C15.7517 19.5805 15.9885 19.342 16.1525 19.055L17.8962 16.0038C18.2011 15.4704 18.3902 14.8788 18.4512 14.2675L18.79 10.8738C18.8247 10.5262 18.7863 10.1752 18.6771 9.84347C18.5679 9.5117 18.3904 9.20649 18.156 8.94752C17.9217 8.68854 17.6356 8.48155 17.3164 8.33988C16.9971 8.19821 16.6517 8.12501 16.3025 8.125H15.5762C15.4982 8.01913 15.417 7.91574 15.3325 7.815C15.0937 7.52875 14.695 7.105 14.2325 6.92C13.7775 6.7375 13.175 6.755 12.785 6.785L12.62 6.8C12.4869 6.45934 12.2394 6.17561 11.92 5.9975C11.6327 5.83108 11.3215 5.70967 10.9975 5.6375C10.61 5.56 10.0737 5.565 9.68496 5.58L9.62496 5.5825Z" fill="black"/>
</svg>
