<svg width="24" height="24" viewBox="0 0 24 24" fill="none" xmlns="http://www.w3.org/2000/svg">
<path d="M1.154 11.2169L0.489958 11.0613C0.473406 11.2212 0.465 11.3824 0.465 11.5449C0.465 15.5719 5.631 18.8379 12.003 18.8379C18.374 18.8379 23.54 15.5719 23.54 11.5449C23.54 11.4225 23.5352 11.3007 23.5258 11.1798C21.3704 11.6596 19.542 12.3194 18.739 12.6609C18.8603 12.8562 18.9163 13.0849 18.899 13.3139C18.8856 13.4788 18.8331 13.6382 18.7458 13.7787C18.6585 13.9192 18.5389 14.0369 18.397 14.1219C18.2553 14.218 18.0957 14.2847 17.9277 14.318C17.7597 14.3513 17.5867 14.3506 17.419 14.3159C17.427 14.5809 17.345 14.9859 16.865 15.2959C16.619 15.4559 16.357 15.5379 16.092 15.5379C16.008 15.5379 15.924 15.5289 15.841 15.5119V15.5219C15.815 15.7349 15.641 15.9849 15.397 16.1589C15.148 16.3379 14.902 16.4239 14.647 16.4239C14.508 16.4239 14.384 16.3979 14.274 16.3659C14.2601 16.3932 14.2441 16.4193 14.226 16.4439C14.126 16.5859 13.907 16.7669 13.437 16.8259C13.38 16.8339 13.322 16.8359 13.262 16.8359C12.787 16.8359 12.32 16.6159 12.099 16.4949C11.84 16.7579 11.484 16.9069 11.114 16.9049C10.8429 16.9054 10.5777 16.8258 10.3519 16.6762C10.1261 16.5265 9.94968 16.3135 9.845 16.0639C9.731 16.1049 9.612 16.1269 9.49 16.1269C9.33306 16.1249 9.17795 16.093 9.033 16.0329C8.593 15.8579 8.397 15.5849 8.311 15.3649C8.224 15.3869 8.135 15.3989 8.045 15.3989C7.90293 15.3977 7.76229 15.3706 7.63 15.3189C7.157 15.1369 6.847 14.7829 6.751 14.3159C6.58368 14.3479 6.41136 14.3427 6.24629 14.3007C6.08122 14.2586 5.92745 14.1808 5.7959 14.0728C5.66436 13.9647 5.55827 13.829 5.48518 13.6754C5.41209 13.5218 5.37379 13.354 5.373 13.1839C5.37324 13.0321 5.40384 12.8818 5.463 12.7419C5.29 12.6079 4.262 11.8989 1.154 11.2169Z" fill="#00BCFF"/>
<path d="M17.845 7.47395C18.7866 7.47395 19.7631 7.25461 20.7864 6.81593C18.6704 5.2469 15.521 4.25195 12.004 4.25195C8.59795 4.25195 5.53712 5.18426 3.42516 6.66712C4.82634 7.1902 6.58293 7.61497 6.932 7.62495C6.952 7.62695 7.177 7.63695 7.302 7.63695C7.608 7.63795 7.92 7.55195 8.281 7.45195C8.687 7.33995 9.141 7.21495 9.669 7.20195C10.211 6.76195 11.017 6.25895 12.451 6.22595C12.482 6.22395 12.515 6.22395 12.547 6.22395C13.7295 6.22685 14.8651 6.73897 14.9793 6.79047C14.9829 6.7921 14.9855 6.79327 14.987 6.79395C15.92 7.24495 16.883 7.47395 17.845 7.47395Z" fill="#00BCFF"/>
<path fill-rule="evenodd" clip-rule="evenodd" d="M10.4658 16.2252C10.641 16.3905 10.8738 16.4815 11.115 16.4789C11.3629 16.48 11.6011 16.3829 11.7773 16.2089C11.9535 16.0349 12.0534 15.7983 12.055 15.5509C12.0518 15.3039 11.9515 15.068 11.7757 14.894C11.5999 14.72 11.3626 14.622 11.115 14.6209C10.983 14.6209 10.841 14.6689 10.748 14.7009C10.743 14.7026 10.7382 14.7042 10.7335 14.7057C10.6778 14.724 10.6417 14.7359 10.614 14.7359H10.594L10.567 14.7229C10.511 14.6859 10.514 14.6229 10.572 14.4789C10.577 14.4699 10.888 13.6049 10.198 13.3119C10.059 13.2519 9.924 13.2219 9.796 13.2219C9.69543 13.2212 9.59575 13.2408 9.50295 13.2794C9.41016 13.3181 9.32615 13.3751 9.256 13.4469C9.237 13.4679 9.21 13.4919 9.173 13.4919C9.158 13.4919 9.091 13.4859 9.083 13.3919C9.072 13.2319 8.998 12.8419 8.564 12.7119C8.458 12.6779 8.35 12.6619 8.248 12.6619C7.703 12.6619 7.406 13.1039 7.396 13.1219L7.286 13.2869L7.26 13.0919C7.214 12.7319 6.903 12.4619 6.539 12.4619C6.135 12.4619 5.807 12.7839 5.807 13.1839C5.8078 13.3769 5.88533 13.5616 6.02258 13.6975C6.15983 13.8334 6.34557 13.9095 6.539 13.9089C6.72733 13.909 6.90833 13.8362 7.044 13.7059L7.091 13.6629L7.141 13.7029C7.166 13.7229 7.176 13.7539 7.171 13.7949C7.138 13.9929 7.08 14.6509 7.788 14.9209C7.8685 14.9531 7.95429 14.9701 8.041 14.9709C8.20536 14.9662 8.36411 14.9102 8.495 14.8109C8.533 14.7839 8.561 14.7719 8.588 14.7719H8.622L8.654 14.8019C8.681 14.8319 8.68 14.8739 8.674 14.9119C8.653 15.0589 8.66 15.4229 9.195 15.6369C9.29146 15.6783 9.39502 15.7007 9.5 15.7029C9.706 15.7029 9.848 15.5999 9.96 15.4969C9.999 15.4609 10.033 15.4379 10.073 15.4379C10.1687 15.4379 10.1739 15.5479 10.1759 15.5912L10.176 15.5929C10.1867 15.8332 10.2906 16.0599 10.4658 16.2252ZM13.936 8.53795C14.649 9.06795 17.279 11.3279 18.417 12.3079L18.418 12.3059C20.0434 11.6072 21.7321 11.0651 23.4611 10.6872C23.4616 10.6871 23.4622 10.687 23.4628 10.6869C23.4642 10.6866 23.4656 10.6863 23.467 10.6859C23.498 10.8487 23.5203 11.0129 23.534 11.1779L23.5258 11.1798C21.3704 11.6596 19.542 12.3194 18.739 12.6609C18.8603 12.8562 18.9163 13.0849 18.899 13.3139C18.8856 13.4788 18.8331 13.6382 18.7458 13.7787C18.6585 13.9192 18.5389 14.0369 18.397 14.1219C18.2553 14.218 18.0957 14.2847 17.9277 14.318C17.7597 14.3513 17.5867 14.3506 17.419 14.3159C17.427 14.5809 17.345 14.9859 16.865 15.2959C16.619 15.4559 16.357 15.5379 16.092 15.5379C16.008 15.5379 15.924 15.5289 15.841 15.5119V15.5219C15.815 15.7349 15.641 15.9849 15.397 16.1589C15.148 16.3379 14.902 16.4239 14.647 16.4239C14.508 16.4239 14.384 16.3979 14.274 16.3659C14.2601 16.3932 14.2441 16.4193 14.226 16.4439C14.126 16.5859 13.907 16.7669 13.437 16.8259C13.38 16.8339 13.322 16.8359 13.262 16.8359C12.787 16.8359 12.32 16.6159 12.099 16.4949C11.84 16.7579 11.484 16.9069 11.114 16.9049C10.8429 16.9054 10.5777 16.8258 10.3519 16.6762C10.1261 16.5265 9.94968 16.3135 9.845 16.0639C9.731 16.1049 9.612 16.1269 9.49 16.1269C9.33306 16.1249 9.17795 16.093 9.033 16.0329C8.593 15.8579 8.397 15.5849 8.311 15.3649C8.224 15.3869 8.135 15.3989 8.045 15.3989C7.90293 15.3977 7.76229 15.3706 7.63 15.3189C7.157 15.1369 6.847 14.7829 6.751 14.3159C6.58368 14.3479 6.41136 14.3427 6.24629 14.3007C6.08122 14.2586 5.92745 14.1808 5.7959 14.0728C5.66436 13.9647 5.55827 13.829 5.48518 13.6754C5.41209 13.5218 5.37379 13.354 5.373 13.1839C5.37324 13.0321 5.40384 12.8818 5.463 12.7419C5.29 12.6079 4.262 11.8989 1.154 11.2169L0.489958 11.0613L0.484 11.0599C0.5011 10.8941 0.526801 10.7292 0.561 10.5659C0.563209 10.5666 0.565419 10.5673 0.567629 10.5679C0.794784 10.6349 1.02329 10.6973 1.253 10.7549C4.295 11.4379 5.433 12.1509 5.72 12.3679C5.93891 12.1536 6.23327 12.0334 6.54 12.0329C6.71305 12.0334 6.88384 12.0722 7.04 12.1466C7.19617 12.221 7.33382 12.329 7.443 12.4629C7.673 12.3009 7.93 12.2209 8.21 12.2209C8.37825 12.2218 8.54519 12.2506 8.704 12.3059C8.99345 12.3984 9.2346 12.6011 9.375 12.8699C9.508 12.8199 9.649 12.7949 9.795 12.7949C9.9932 12.7971 10.1889 12.8396 10.37 12.9199C11.042 13.2039 11.091 13.8519 11.067 14.1939C11.2503 14.187 11.4331 14.2169 11.6046 14.2819C11.7761 14.3468 11.9328 14.4455 12.0652 14.5722C12.1977 14.6988 12.3033 14.8506 12.3758 15.0188C12.4482 15.1869 12.4861 15.3679 12.487 15.5509C12.4871 15.7502 12.4427 15.947 12.357 16.1269C12.547 16.2269 12.914 16.3909 13.259 16.3909C13.2998 16.3913 13.3405 16.389 13.381 16.3839C13.716 16.3429 13.827 16.2319 13.86 16.1879C13.8745 16.1693 13.8857 16.1484 13.893 16.1259L12.973 15.1229C12.917 15.0699 12.783 14.9259 12.873 14.8299C12.8851 14.8166 12.9 14.8059 12.9165 14.7987C12.9331 14.7914 12.9509 14.7878 12.969 14.7879C13.046 14.7879 13.12 14.8479 13.179 14.8979C13.607 15.2493 14.1157 15.7602 14.2195 15.8644C14.2253 15.8702 14.2298 15.8748 14.233 15.8779L14.246 15.8909C14.28 15.9319 14.352 15.9619 14.458 15.9799C14.5065 15.9885 14.5557 15.9925 14.605 15.9919C14.702 15.9919 14.948 15.9779 15.132 15.8279C15.1672 15.7979 15.2006 15.7659 15.232 15.7319L15.27 15.6839C15.468 15.4329 15.256 15.1829 15.246 15.1729L14.168 13.9749C14.1408 13.9493 14.1157 13.9216 14.093 13.8919C14.009 13.7829 14.032 13.7169 14.065 13.6799C14.0772 13.6675 14.0919 13.6577 14.108 13.6512C14.1242 13.6446 14.1416 13.6415 14.159 13.6419C14.232 13.6419 14.308 13.6959 14.38 13.7539C14.7518 14.0775 15.112 14.4141 15.46 14.7629L15.674 14.9689C15.7986 15.0512 15.9446 15.0954 16.094 15.0959C16.2824 15.0919 16.4654 15.0324 16.62 14.9249C16.864 14.7659 16.982 14.5629 16.97 14.3189C16.95 14.0939 16.768 13.9239 16.766 13.9239L15.286 12.4539C15.191 12.3719 15.108 12.2499 15.181 12.1599C15.1926 12.1457 15.2072 12.1343 15.2239 12.1265C15.2405 12.1187 15.2586 12.1147 15.277 12.1149C15.351 12.1149 15.423 12.1699 15.497 12.2299C15.8609 12.5314 16.7127 13.2969 17.0751 13.6226C17.1768 13.714 17.2399 13.7708 17.243 13.7729C17.3711 13.8537 17.5195 13.8967 17.671 13.8969C17.8434 13.8941 18.0114 13.8421 18.155 13.7469C18.339 13.6329 18.442 13.4669 18.449 13.2809C18.4666 12.9551 18.2424 12.7559 18.2296 12.7445C18.2292 12.7442 18.229 12.744 18.229 12.7439C18.194 12.7129 14.498 9.51795 13.663 8.89795C13.193 8.55095 12.93 8.45995 12.66 8.42595C12.6285 8.42182 12.5967 8.42015 12.565 8.42095C12.4401 8.42212 12.3158 8.43891 12.195 8.47095C11.785 8.58095 11.249 8.95695 10.872 9.25295L10.855 9.26627C10.3863 9.63334 9.9449 9.97908 9.523 10.0729C9.39 10.1019 9.245 10.1169 9.093 10.1169C8.69 10.1159 8.256 10.0079 8.013 9.84595C7.89746 9.77622 7.80444 9.67487 7.745 9.55395C7.631 9.29095 7.805 9.07695 7.885 8.99695L8.902 7.90995L9.098 7.71595C8.852 7.76295 8.619 7.82695 8.406 7.88595C8.046 7.98595 7.674 8.08895 7.302 8.08895C7.17929 8.08895 7.05764 8.07988 6.93979 8.07109C6.8963 8.06785 6.85332 8.06464 6.811 8.06195C6.25018 8.02602 4.47249 7.56788 3.00825 6.97668C3.00822 6.97667 3.00828 6.97669 3.00825 6.97668C3.00519 6.97545 3.00205 6.97418 2.999 6.97295C3.134 6.86595 3.271 6.76295 3.414 6.66295L3.42516 6.66712C4.82634 7.1902 6.58293 7.61497 6.932 7.62495C6.952 7.62695 7.177 7.63695 7.302 7.63695C7.608 7.63795 7.92 7.55195 8.281 7.45195C8.687 7.33995 9.141 7.21495 9.669 7.20195C10.211 6.76195 11.017 6.25895 12.451 6.22595C12.482 6.22395 12.515 6.22395 12.547 6.22395C13.7295 6.22685 14.8651 6.73897 14.9793 6.79047C14.9829 6.7921 14.9855 6.79327 14.987 6.79395C15.92 7.24495 16.883 7.47395 17.845 7.47395C18.7866 7.47395 19.7631 7.25461 20.7864 6.81593L20.791 6.81395C20.929 6.9158 21.064 7.02151 21.196 7.13095C21.1943 7.13173 21.1926 7.13252 21.1908 7.1333C20.0267 7.66372 18.9164 7.92595 17.842 7.92595C16.7818 7.91815 15.737 7.67064 14.786 7.20195C14.666 7.14695 13.608 6.67795 12.546 6.67795H12.461C10.756 6.71695 10.014 7.44895 9.231 8.22295L8.231 9.28995L8.223 9.29795C8.176 9.35695 8.163 9.39795 8.183 9.42295C8.306 9.57695 8.631 9.68095 8.993 9.68095C9.1377 9.68028 9.28189 9.66385 9.423 9.63195C9.74253 9.56291 10.1613 9.23518 10.5698 8.91538L10.587 8.90195L10.61 8.88395C11.054 8.53495 11.512 8.17495 11.972 8.02995C12.176 7.96695 12.37 7.93495 12.552 7.93495C12.7066 7.93561 12.8603 7.9592 13.008 8.00495C13.251 8.07595 13.53 8.23595 13.936 8.53795Z" fill="#0B0080"/>
<path fill-rule="evenodd" clip-rule="evenodd" d="M24 11.5489C24 7.27695 18.626 3.79395 12 3.79395C5.374 3.79395 0.002 7.27695 0.002 11.5499L0 12.0039C0 16.5369 4.695 20.2069 11.999 20.2069C19.346 20.2069 23.999 16.5369 23.999 12.0029L24 11.5489ZM20.791 6.81395C20.929 6.9158 21.064 7.02151 21.196 7.13095L21.1908 7.1333C22.4069 8.14387 23.2153 9.36117 23.4611 10.6872C23.4616 10.6871 23.4622 10.687 23.4628 10.6869L23.467 10.6859C23.498 10.8487 23.5203 11.0129 23.534 11.1779L23.5258 11.1798C23.5352 11.3007 23.54 11.4225 23.54 11.5449C23.54 15.5719 18.374 18.8379 12.003 18.8379C5.631 18.8379 0.465 15.5719 0.465 11.5449C0.465 11.3824 0.473406 11.2212 0.489958 11.0613L0.484 11.0599C0.5011 10.8941 0.526801 10.7292 0.561 10.5659L0.567629 10.5679C0.853251 9.21924 1.72193 7.98729 3.00825 6.97668L2.999 6.97295C3.134 6.86595 3.271 6.76295 3.414 6.66295L3.42516 6.66712C5.53712 5.18426 8.59795 4.25195 12.004 4.25195C15.521 4.25195 18.6704 5.2469 20.7864 6.81593L20.791 6.81395Z" fill="#0B0080"/>
</svg>
