<svg width="48" height="50" viewBox="0 0 48 50" fill="none" xmlns="http://www.w3.org/2000/svg">
<path d="M24.831 0.257547C24.5848 0.0902392 24.2957 0.000976563 24 0.000976562C23.7043 0.000976563 23.4152 0.0902392 23.169 0.257547L0.669 15.5767C0.401241 15.759 0.198003 16.0245 0.0893075 16.3339C-0.0193883 16.6432 -0.0277786 16.9801 0.0653759 17.2947C0.15853 17.6093 0.34829 17.8849 0.606626 18.0809C0.864961 18.277 1.17817 18.3829 1.5 18.3832H7.125V39.83H4.5C4.10218 39.83 3.72064 39.9914 3.43934 40.2787C3.15804 40.566 3 40.9556 3 41.3619C3 41.7682 3.15804 42.1578 3.43934 42.4451C3.72064 42.7324 4.10218 42.8938 4.5 42.8938H43.5C43.8978 42.8938 44.2794 42.7324 44.5607 42.4451C44.842 42.1578 45 41.7682 45 41.3619C45 40.9556 44.842 40.566 44.5607 40.2787C44.2794 39.9914 43.8978 39.83 43.5 39.83H40.875V18.3832H46.5C46.8218 18.3829 47.135 18.277 47.3934 18.0809C47.6517 17.8849 47.8415 17.6093 47.9346 17.2947C48.0278 16.9801 48.0194 16.6432 47.9107 16.3339C47.802 16.0245 47.5988 15.759 47.331 15.5767L24.831 0.257547ZM37.125 18.3832V39.83H33.375V18.3832H37.125ZM29.625 18.3832V39.83H25.875V18.3832H29.625ZM22.125 18.3832V39.83H18.375V18.3832H22.125ZM14.625 18.3832V39.83H10.875V18.3832H14.625ZM24 12.2555C23.2044 12.2555 22.4413 11.9327 21.8787 11.3581C21.3161 10.7836 21 10.0043 21 9.19168C21 8.3791 21.3161 7.5998 21.8787 7.02522C22.4413 6.45064 23.2044 6.12785 24 6.12785C24.7956 6.12785 25.5587 6.45064 26.1213 7.02522C26.6839 7.5998 27 8.3791 27 9.19168C27 10.0043 26.6839 10.7836 26.1213 11.3581C25.5587 11.9327 24.7956 12.2555 24 12.2555ZM1.5 45.9576C1.10218 45.9576 0.720644 46.119 0.43934 46.4063C0.158035 46.6936 0 47.0833 0 47.4896C0 47.8958 0.158035 48.2855 0.43934 48.5728C0.720644 48.8601 1.10218 49.0215 1.5 49.0215H46.5C46.8978 49.0215 47.2794 48.8601 47.5607 48.5728C47.842 48.2855 48 47.8958 48 47.4896C48 47.0833 47.842 46.6936 47.5607 46.4063C47.2794 46.119 46.8978 45.9576 46.5 45.9576H1.5Z" fill="#171A1A"/>
</svg>
