<svg width="24" height="24" viewBox="0 0 24 24" fill="none" xmlns="http://www.w3.org/2000/svg">
<path d="M20.3582 1.86808C19.0521 0.605932 16.6911 0.0648193 13.6707 0.0648193H4.9045C4.60566 0.0648287 4.31662 0.15522 4.08935 0.319742C3.86209 0.484263 3.7115 0.712123 3.66466 0.962356L0.0145989 20.5889C-0.0579524 20.9759 0.295524 21.3264 0.758203 21.3264H6.17012L7.52929 14.0174L7.48711 14.2463C7.58394 13.7296 8.1051 13.3486 8.72226 13.3486H11.294C16.3461 13.3486 20.3021 11.6088 21.4576 6.57605C21.492 6.4272 21.5217 6.28233 21.5473 6.14079C21.4015 6.07531 21.4015 6.07531 21.5473 6.14079C21.8915 4.28063 21.545 3.01444 20.3582 1.86808Z" fill="#27346A"/>
<path d="M9.60009 5.4707C9.74805 5.41097 9.90987 5.38002 10.0737 5.3801H16.9462C17.7601 5.3801 18.5191 5.425 19.2128 5.51965C19.4069 5.54589 19.6 5.57722 19.7918 5.61359C20.0636 5.66445 20.3324 5.7267 20.597 5.8001C20.938 5.89666 21.2556 6.00911 21.5474 6.14079C21.8915 4.27992 21.545 3.01444 20.3582 1.86808C19.0514 0.605932 16.6911 0.0648193 13.6707 0.0648193H4.90375C4.2865 0.0648193 3.7614 0.445799 3.66466 0.962356L0.0145994 20.5882C-0.0579519 20.9758 0.295525 21.3258 0.757454 21.3258H6.17012L8.98997 6.16527C9.0177 6.01625 9.08771 5.87518 9.19399 5.75419C9.30028 5.6332 9.43964 5.53591 9.60009 5.4707Z" fill="#27346A"/>
<path d="M21.4576 6.57613C20.3021 11.6082 16.3462 13.3487 11.294 13.3487H8.72151C8.10436 13.3487 7.5831 13.7297 7.4872 14.2464L5.79631 23.3342C5.73313 23.6729 6.04208 23.9798 6.44627 23.9798H11.0084C11.2697 23.9797 11.5224 23.9006 11.7211 23.7567C11.9198 23.6128 12.0514 23.4135 12.0922 23.1946L12.1367 22.9975L12.9965 18.3775L13.0519 18.1221C13.0927 17.9033 13.2243 17.704 13.423 17.5601C13.6217 17.4161 13.8744 17.337 14.1357 17.3369H14.8184C19.2378 17.3369 22.6982 15.8148 23.7095 11.4124C24.1315 9.57271 23.9131 8.03671 22.7966 6.95782C22.4579 6.63104 22.0373 6.36116 21.5474 6.14087C21.5208 6.28312 21.4921 6.42728 21.4576 6.57613Z" fill="#2790C3"/>
<path d="M20.3379 5.73198C20.1577 5.68737 19.9758 5.64788 19.7926 5.61357C19.6006 5.5778 19.4076 5.54668 19.2136 5.52027C18.5192 5.42499 17.7607 5.38001 16.9461 5.38001H10.0744C9.91043 5.37969 9.74849 5.41091 9.60078 5.47132C9.44015 5.53633 9.30062 5.63356 9.19429 5.75458C9.08797 5.87561 9.01804 6.01679 8.99056 6.16589L7.52997 14.0174L7.48779 14.2463C7.58387 13.7296 8.10504 13.3486 8.72229 13.3486H11.2948C16.3469 13.3486 20.3028 11.6088 21.4583 6.57603C21.4927 6.42719 21.5216 6.28295 21.5481 6.14078C21.2555 6.00981 20.9388 5.89664 20.5977 5.80072C20.5116 5.77653 20.425 5.75361 20.338 5.73198" fill="#1F264F"/>
</svg>
