<svg width="16" height="16" viewBox="0 0 16 16" fill="none" xmlns="http://www.w3.org/2000/svg">
<path d="M12.1458 0.146039C12.1923 0.0994761 12.2474 0.0625332 12.3082 0.0373268C12.3689 0.0121203 12.434 -0.000854492 12.4998 -0.000854492C12.5656 -0.000854492 12.6307 0.0121203 12.6914 0.0373268C12.7522 0.0625332 12.8074 0.0994761 12.8538 0.146039L15.8538 3.14604C15.9004 3.19248 15.9373 3.24766 15.9625 3.30841C15.9877 3.36915 16.0007 3.43427 16.0007 3.50004C16.0007 3.56581 15.9877 3.63093 15.9625 3.69167C15.9373 3.75242 15.9004 3.80759 15.8538 3.85404L5.85381 13.854C5.80582 13.9017 5.74867 13.9391 5.68581 13.964L0.685806 15.964C0.594942 16.0004 0.495402 16.0093 0.399526 15.9896C0.303649 15.97 0.215653 15.9226 0.146447 15.8534C0.0772403 15.7842 0.0298668 15.6962 0.0101994 15.6003C-0.0094681 15.5044 -0.000564594 15.4049 0.0358061 15.314L2.03581 10.314C2.06073 10.2512 2.09816 10.194 2.14581 10.146L12.1458 0.146039ZM11.2068 2.50004L13.4998 4.79304L14.7928 3.50004L12.4998 1.20704L11.2068 2.50004ZM12.7928 5.50004L10.4998 3.20704L3.99981 9.70704V10H4.49981C4.63241 10 4.75959 10.0527 4.85336 10.1465C4.94713 10.2403 4.99981 10.3674 4.99981 10.5V11H5.49981C5.63241 11 5.75959 11.0527 5.85336 11.1465C5.94713 11.2403 5.99981 11.3674 5.99981 11.5V12H6.29281L12.7928 5.50004ZM3.03181 10.675L2.92581 10.781L1.39781 14.602L5.21881 13.074L5.32481 12.968C5.22943 12.9324 5.1472 12.8685 5.08912 12.7849C5.03104 12.7012 4.99988 12.6019 4.99981 12.5V12H4.49981C4.3672 12 4.24002 11.9474 4.14625 11.8536C4.05248 11.7598 3.99981 11.6326 3.99981 11.5V11H3.49981C3.39799 11 3.29862 10.9688 3.21498 10.9107C3.13135 10.8526 3.06744 10.7704 3.03181 10.675Z" fill="#373F3F"/>
</svg>
