<svg width="23" height="17" viewBox="0 0 23 17" fill="none" xmlns="http://www.w3.org/2000/svg">
<g clip-path="url(#clip0_1231_2428)">
<path d="M9.19806 3.27995C8.61368 2.36989 7.74971 1.67409 6.73601 1.29712C5.7223 0.920156 4.61363 0.88239 3.57662 1.1895C2.53961 1.49661 1.63029 2.13201 0.985339 3.00019C0.340385 3.86837 -0.00536273 4.92243 6.28934e-05 6.00395C0.000600809 6.89955 0.241636 7.77857 0.697989 8.54919C1.15434 9.31981 1.80927 9.95373 2.59434 10.3847C3.37941 10.8157 4.26582 11.028 5.16097 10.9994C6.05611 10.9707 6.92714 10.7023 7.68306 10.2219C7.29006 11.3889 6.55806 12.6339 5.35206 13.8819C5.12132 14.1206 4.99486 14.4412 5.00048 14.7732C5.00327 14.9375 5.0384 15.0997 5.10387 15.2505C5.16934 15.4013 5.26387 15.5377 5.38206 15.6519C5.50025 15.7662 5.63979 15.856 5.7927 15.9164C5.94562 15.9767 6.10892 16.0063 6.27328 16.0035C6.60522 15.9979 6.92132 15.8606 7.15206 15.6219C11.6101 11.0019 11.0311 5.97995 9.19806 3.28595V3.27995ZM21.1981 3.27995C20.6137 2.36989 19.7497 1.67409 18.736 1.29712C17.7223 0.920156 16.6136 0.88239 15.5766 1.1895C14.5396 1.49661 13.6303 2.13201 12.9853 3.00019C12.3404 3.86837 11.9946 4.92243 12.0001 6.00395C12.0006 6.89955 12.2416 7.77857 12.698 8.54919C13.1543 9.31981 13.8093 9.95373 14.5943 10.3847C15.3794 10.8157 16.2658 11.028 17.161 10.9994C18.0561 10.9707 18.9271 10.7023 19.6831 10.2219C19.2901 11.3889 18.5581 12.6339 17.3521 13.8819C17.2378 14.0001 17.148 14.1397 17.0876 14.2926C17.0273 14.4455 16.9977 14.6088 17.0005 14.7732C17.0033 14.9375 17.0384 15.0997 17.1039 15.2505C17.1693 15.4013 17.2639 15.5377 17.3821 15.6519C17.5003 15.7662 17.6398 15.856 17.7927 15.9164C17.9456 15.9767 18.1089 16.0063 18.2733 16.0035C18.4376 16.0007 18.5998 15.9656 18.7506 15.9001C18.9014 15.8347 19.0378 15.7401 19.1521 15.6219C23.6101 11.0019 23.0311 5.97995 21.1981 3.28595V3.27995Z" fill="#0C6465"/>
</g>
<defs>
<clipPath id="clip0_1231_2428">
<rect width="23.0001" height="17" fill="white"/>
</clipPath>
</defs>
</svg>
