<svg width="23" height="17" viewBox="0 0 23 17" fill="none" xmlns="http://www.w3.org/2000/svg">
<g clip-path="url(#clip0_1231_2421)">
<path d="M13.8019 13.7201C14.3863 14.6301 15.2503 15.3259 16.264 15.7029C17.2777 16.0798 18.3864 16.1176 19.4234 15.8105C20.4604 15.5034 21.3697 14.868 22.0147 13.9998C22.6596 13.1316 23.0054 12.0776 22.9999 10.9961C22.9994 10.1005 22.7584 9.22143 22.302 8.45081C21.8457 7.68019 21.1907 7.04627 20.4057 6.61526C19.6206 6.18425 18.7342 5.97198 17.839 6.00062C16.9439 6.02925 16.0729 6.29775 15.3169 6.77805C15.7099 5.61105 16.4419 4.36605 17.6479 3.11805C17.8787 2.87936 18.0051 2.55878 17.9995 2.22684C17.9967 2.06248 17.9616 1.90028 17.8961 1.7495C17.8307 1.59871 17.7361 1.4623 17.6179 1.34805C17.4997 1.2338 17.3602 1.14395 17.2073 1.08363C17.0544 1.0233 16.8911 0.993689 16.7267 0.996475C16.3948 1.0021 16.0787 1.13936 15.8479 1.37805C11.3899 5.99805 11.9689 11.0201 13.8019 13.7141L13.8019 13.7201ZM1.80194 13.7201C2.38632 14.6301 3.25029 15.3259 4.26399 15.7029C5.2777 16.0798 6.38638 16.1176 7.42338 15.8105C8.46039 15.5034 9.36971 14.868 10.0147 13.9998C10.6596 13.1316 11.0054 12.0776 10.9999 10.9961C10.9994 10.1004 10.7584 9.22142 10.302 8.45081C9.84566 7.68019 9.19073 7.04627 8.40566 6.61526C7.62059 6.18425 6.73418 5.97198 5.83903 6.00061C4.94389 6.02925 4.07286 6.29775 3.31694 6.77805C3.70994 5.61105 4.44194 4.36605 5.64794 3.11805C5.76219 2.99986 5.85204 2.86033 5.91236 2.70741C5.97269 2.5545 6.0023 2.3912 5.99952 2.22684C5.99673 2.06248 5.9616 1.90028 5.89613 1.74949C5.83066 1.59871 5.73613 1.4623 5.61794 1.34805C5.49975 1.2338 5.36021 1.14395 5.2073 1.08363C5.05439 1.0233 4.89108 0.993688 4.72672 0.996474C4.56237 0.999259 4.40016 1.03439 4.24938 1.09986C4.0986 1.16533 3.96219 1.25986 3.84794 1.37805C-0.610061 5.99805 -0.0310626 11.0201 1.80194 13.7141L1.80194 13.7201Z" fill="#0C6465"/>
</g>
<defs>
<clipPath id="clip0_1231_2421">
<rect width="23.0001" height="17" fill="white" transform="translate(23 17) rotate(-180)"/>
</clipPath>
</defs>
</svg>
