<svg width="22" height="22" viewBox="0 0 22 22" fill="none" xmlns="http://www.w3.org/2000/svg">
<path d="M0.765663 0.678601C0.877696 0.583545 1.01518 0.523489 1.16105 0.505889C1.30691 0.488289 1.45474 0.513921 1.58616 0.579601L21.0862 10.3296C21.2106 10.392 21.3152 10.4877 21.3883 10.6061C21.4614 10.7245 21.5001 10.8609 21.5001 11.0001C21.5001 11.1393 21.4614 11.2757 21.3883 11.3941C21.3152 11.5125 21.2106 11.6082 21.0862 11.6706L1.58616 21.4206C1.45483 21.4865 1.30704 21.5123 1.16115 21.4949C1.01526 21.4775 0.877702 21.4176 0.765543 21.3227C0.653385 21.2278 0.571571 21.102 0.530259 20.961C0.488947 20.82 0.489957 20.67 0.533163 20.5296L3.46566 11.0001L0.533163 1.4706C0.490204 1.33032 0.489334 1.18051 0.530659 1.03974C0.571985 0.898965 0.653692 0.773403 0.765663 0.678601ZM4.80366 11.7501L2.48316 19.2951L19.0732 11.0001L2.48316 2.7051L4.80366 10.2501H13.2502C13.4491 10.2501 13.6398 10.3291 13.7805 10.4698C13.9211 10.6104 14.0002 10.8012 14.0002 11.0001C14.0002 11.199 13.9211 11.3898 13.7805 11.5304C13.6398 11.6711 13.4491 11.7501 13.2502 11.7501H4.80366Z" fill="black"/>
</svg>
