<svg width="32" height="32" viewBox="0 0 32 32" fill="none" xmlns="http://www.w3.org/2000/svg">
<rect x="0.5" y="0.5" width="31" height="31" rx="15.5" fill=""/>
<rect x="0.5" y="0.5" width="31" height="31" rx="15.5" stroke="#373F3F"/>
<path d="M16 16C17.1935 16 18.3381 15.5259 19.182 14.682C20.0259 13.8381 20.5 12.6935 20.5 11.5C20.5 10.3065 20.0259 9.16193 19.182 8.31802C18.3381 7.47411 17.1935 7 16 7C14.8065 7 13.6619 7.47411 12.818 8.31802C11.9741 9.16193 11.5 10.3065 11.5 11.5C11.5 12.6935 11.9741 13.8381 12.818 14.682C13.6619 15.5259 14.8065 16 16 16ZM19 11.5C19 12.2956 18.6839 13.0587 18.1213 13.6213C17.5587 14.1839 16.7956 14.5 16 14.5C15.2044 14.5 14.4413 14.1839 13.8787 13.6213C13.3161 13.0587 13 12.2956 13 11.5C13 10.7044 13.3161 9.94129 13.8787 9.37868C14.4413 8.81607 15.2044 8.5 16 8.5C16.7956 8.5 17.5587 8.81607 18.1213 9.37868C18.6839 9.94129 19 10.7044 19 11.5ZM25 23.5C25 25 23.5 25 23.5 25H8.5C8.5 25 7 25 7 23.5C7 22 8.5 17.5 16 17.5C23.5 17.5 25 22 25 23.5ZM23.5 23.494C23.4985 23.125 23.269 22.015 22.252 20.998C21.274 20.02 19.4335 19 16 19C12.565 19 10.726 20.02 9.748 20.998C8.731 22.015 8.503 23.125 8.5 23.494H23.5Z" fill="#373F3F"/>
<path d="M23.5 23.494C23.4985 23.125 23.269 22.015 22.252 20.998C21.274 20.02 19.4335 19 16 19C12.565 19 10.726 20.02 9.748 20.998C8.731 22.015 8.503 23.125 8.5 23.494H23.5Z" fill="#44C5C6"/>
<path d="M19 11.5C19 12.2956 18.6839 13.0587 18.1213 13.6213C17.5587 14.1839 16.7956 14.5 16 14.5C15.2044 14.5 14.4413 14.1839 13.8787 13.6213C13.3161 13.0587 13 12.2956 13 11.5C13 10.7044 13.3161 9.94129 13.8787 9.37868C14.4413 8.81607 15.2044 8.5 16 8.5C16.7956 8.5 17.5587 8.81607 18.1213 9.37868C18.6839 9.94129 19 10.7044 19 11.5Z" fill="#44C5C6"/>
</svg>
