<svg width="25" height="24" viewBox="0 0 25 24" fill="none" xmlns="http://www.w3.org/2000/svg">
<path fill-rule="evenodd" clip-rule="evenodd" d="M10.25 18C11.3334 18 12.4062 17.7866 13.4071 17.372C14.4081 16.9574 15.3175 16.3497 16.0836 15.5836C16.8497 14.8175 17.4574 13.9081 17.872 12.9071C18.2866 11.9062 18.5 10.8334 18.5 9.75C18.5 8.66659 18.2866 7.5938 17.872 6.59286C17.4574 5.59193 16.8497 4.68245 16.0836 3.91637C15.3175 3.15029 14.4081 2.5426 13.4071 2.12799C12.4062 1.71339 11.3334 1.5 10.25 1.5C8.06196 1.5 5.96354 2.36919 4.41637 3.91637C2.86919 5.46354 2 7.56196 2 9.75C2 11.938 2.86919 14.0365 4.41637 15.5836C5.96354 17.1308 8.06196 18 10.25 18ZM20 9.75C20 12.3359 18.9728 14.8158 17.1443 16.6443C15.3158 18.4728 12.8359 19.5 10.25 19.5C7.66414 19.5 5.18419 18.4728 3.35571 16.6443C1.52723 14.8158 0.5 12.3359 0.5 9.75C0.5 7.16414 1.52723 4.68419 3.35571 2.85571C5.18419 1.02723 7.66414 0 10.25 0C12.8359 0 15.3158 1.02723 17.1443 2.85571C18.9728 4.68419 20 7.16414 20 9.75Z" fill="black"/>
<path d="M16.0156 17.613C16.0596 17.673 16.1086 17.7305 16.1626 17.7855L21.9376 23.5605C22.2189 23.842 22.6004 24.0002 22.9983 24.0003C23.3963 24.0004 23.7779 23.8425 24.0594 23.5613C24.3408 23.28 24.499 22.8984 24.4992 22.5005C24.4993 22.1026 24.3414 21.721 24.0601 21.4395L18.2851 15.6645C18.2315 15.6102 18.1739 15.56 18.1126 15.5145C17.5249 16.3174 16.8177 17.0256 16.0156 17.6145V17.613Z" fill="black"/>
<path fill-rule="evenodd" clip-rule="evenodd" d="M10.25 4.5C10.4489 4.5 10.6397 4.57902 10.7803 4.71967C10.921 4.86032 11 5.05109 11 5.25V9H14.75C14.9489 9 15.1397 9.07902 15.2803 9.21967C15.421 9.36032 15.5 9.55109 15.5 9.75C15.5 9.94891 15.421 10.1397 15.2803 10.2803C15.1397 10.421 14.9489 10.5 14.75 10.5H11V14.25C11 14.4489 10.921 14.6397 10.7803 14.7803C10.6397 14.921 10.4489 15 10.25 15C10.0511 15 9.86032 14.921 9.71967 14.7803C9.57902 14.6397 9.5 14.4489 9.5 14.25V10.5H5.75C5.55109 10.5 5.36032 10.421 5.21967 10.2803C5.07902 10.1397 5 9.94891 5 9.75C5 9.55109 5.07902 9.36032 5.21967 9.21967C5.36032 9.07902 5.55109 9 5.75 9H9.5V5.25C9.5 5.05109 9.57902 4.86032 9.71967 4.71967C9.86032 4.57902 10.0511 4.5 10.25 4.5Z" fill="black"/>
</svg>
